  0
SECTION
  2
HEADER
  9
$ACADVER
  1
AC1015
  9
$ACADMAINTVER
 70
     6
  9
$DWGCODEPAGE
  3
ANSI_1252
  9
$INSBASE
 10
0.0
 20
0.0
 30
0.0
  9
$EXTMIN
 10
26.19873147713803
 20
-391.3578641439763
 30
-0.0015258207003583
  9
$EXTMAX
 10
1015.187989952028
 20
613.2196208106115
 30
0.0000000349246037
  9
$LIMMIN
 10
0.0
 20
0.0
  9
$LIMMAX
 10
420.0
 20
297.0
  9
$ORTHOMODE
 70
     0
  9
$REGENMODE
 70
     1
  9
$FILLMODE
 70
     1
  9
$QTEXTMODE
 70
     0
  9
$MIRRTEXT
 70
     1
  9
$LTSCALE
 40
1.0
  9
$ATTMODE
 70
     1
  9
$TEXTSIZE
 40
2.5
  9
$TRACEWID
 40
1.0
  9
$TEXTSTYLE
  7
Standard
  9
$CLAYER
  8
0
  9
$CELTYPE
  6
ByLayer
  9
$CECOLOR
 62
   256
  9
$CELTSCALE
 40
1.0
  9
$DISPSILH
 70
     0
  9
$DIMSCALE
 40
1.0
  9
$DIMASZ
 40
2.5
  9
$DIMEXO
 40
0.625
  9
$DIMDLI
 40
3.75
  9
$DIMRND
 40
0.0
  9
$DIMDLE
 40
0.0
  9
$DIMEXE
 40
1.25
  9
$DIMTP
 40
0.0
  9
$DIMTM
 40
0.0
  9
$DIMTXT
 40
2.5
  9
$DIMCEN
 40
2.5
  9
$DIMTSZ
 40
0.0
  9
$DIMTOL
 70
     0
  9
$DIMLIM
 70
     0
  9
$DIMTIH
 70
     0
  9
$DIMTOH
 70
     0
  9
$DIMSE1
 70
     0
  9
$DIMSE2
 70
     0
  9
$DIMTAD
 70
     1
  9
$DIMZIN
 70
     8
  9
$DIMBLK
  1

  9
$DIMASO
 70
     1
  9
$DIMSHO
 70
     1
  9
$DIMPOST
  1

  9
$DIMAPOST
  1

  9
$DIMALT
 70
     0
  9
$DIMALTD
 70
     3
  9
$DIMALTF
 40
0.03937
  9
$DIMLFAC
 40
1.0
  9
$DIMTOFL
 70
     1
  9
$DIMTVP
 40
0.0
  9
$DIMTIX
 70
     0
  9
$DIMSOXD
 70
     0
  9
$DIMSAH
 70
     0
  9
$DIMBLK1
  1

  9
$DIMBLK2
  1

  9
$DIMSTYLE
  2
ISO-25
  9
$DIMCLRD
 70
     0
  9
$DIMCLRE
 70
     0
  9
$DIMCLRT
 70
     0
  9
$DIMTFAC
 40
1.0
  9
$DIMGAP
 40
0.625
  9
$DIMJUST
 70
     0
  9
$DIMSD1
 70
     0
  9
$DIMSD2
 70
     0
  9
$DIMTOLJ
 70
     0
  9
$DIMTZIN
 70
     8
  9
$DIMALTZ
 70
     0
  9
$DIMALTTZ
 70
     0
  9
$DIMUPT
 70
     0
  9
$DIMDEC
 70
     2
  9
$DIMTDEC
 70
     2
  9
$DIMALTU
 70
     2
  9
$DIMALTTD
 70
     3
  9
$DIMTXSTY
  7
Standard
  9
$DIMAUNIT
 70
     0
  9
$DIMADEC
 70
     0
  9
$DIMALTRND
 40
0.0
  9
$DIMAZIN
 70
     0
  9
$DIMDSEP
 70
    44
  9
$DIMATFIT
 70
     3
  9
$DIMFRAC
 70
     0
  9
$DIMLDRBLK
  1

  9
$DIMLUNIT
 70
     2
  9
$DIMLWD
 70
    -2
  9
$DIMLWE
 70
    -2
  9
$DIMTMOVE
 70
     0
  9
$LUNITS
 70
     2
  9
$LUPREC
 70
     4
  9
$SKETCHINC
 40
1.0
  9
$FILLETRAD
 40
10.0
  9
$AUNITS
 70
     0
  9
$AUPREC
 70
     0
  9
$MENU
  1
.
  9
$ELEVATION
 40
0.0
  9
$PELEVATION
 40
0.0
  9
$THICKNESS
 40
0.0
  9
$LIMCHECK
 70
     0
  9
$CHAMFERA
 40
10.0
  9
$CHAMFERB
 40
10.0
  9
$CHAMFERC
 40
20.0
  9
$CHAMFERD
 40
0.0
  9
$SKPOLY
 70
     0
  9
$TDCREATE
 40
2455432.639450046
  9
$TDUCREATE
 40
2455432.139450046
  9
$TDUPDATE
 40
2455432.762973623
  9
$TDUUPDATE
 40
2455432.262973622
  9
$TDINDWG
 40
0.1229689468
  9
$TDUSRTIMER
 40
0.1229682176
  9
$USRTIMER
 70
     1
  9
$ANGBASE
 50
0.0
  9
$ANGDIR
 70
     0
  9
$PDMODE
 70
     3
  9
$PDSIZE
 40
-0.7
  9
$PLINEWID
 40
0.0
  9
$SPLFRAME
 70
     0
  9
$SPLINETYPE
 70
     6
  9
$SPLINESEGS
 70
     8
  9
$HANDSEED
  5
2B2
  9
$SURFTAB1
 70
     6
  9
$SURFTAB2
 70
     6
  9
$SURFTYPE
 70
     6
  9
$SURFU
 70
     6
  9
$SURFV
 70
     6
  9
$UCSBASE
  2

  9
$UCSNAME
  2

  9
$UCSORG
 10
0.0
 20
0.0
 30
0.0
  9
$UCSXDIR
 10
1.0
 20
0.0
 30
0.0
  9
$UCSYDIR
 10
0.0
 20
1.0
 30
0.0
  9
$UCSORTHOREF
  2

  9
$UCSORTHOVIEW
 70
     0
  9
$UCSORGTOP
 10
0.0
 20
0.0
 30
0.0
  9
$UCSORGBOTTOM
 10
0.0
 20
0.0
 30
0.0
  9
$UCSORGLEFT
 10
0.0
 20
0.0
 30
0.0
  9
$UCSORGRIGHT
 10
0.0
 20
0.0
 30
0.0
  9
$UCSORGFRONT
 10
0.0
 20
0.0
 30
0.0
  9
$UCSORGBACK
 10
0.0
 20
0.0
 30
0.0
  9
$PUCSBASE
  2

  9
$PUCSNAME
  2

  9
$PUCSORG
 10
0.0
 20
0.0
 30
0.0
  9
$PUCSXDIR
 10
1.0
 20
0.0
 30
0.0
  9
$PUCSYDIR
 10
0.0
 20
1.0
 30
0.0
  9
$PUCSORTHOREF
  2

  9
$PUCSORTHOVIEW
 70
     0
  9
$PUCSORGTOP
 10
0.0
 20
0.0
 30
0.0
  9
$PUCSORGBOTTOM
 10
0.0
 20
0.0
 30
0.0
  9
$PUCSORGLEFT
 10
0.0
 20
0.0
 30
0.0
  9
$PUCSORGRIGHT
 10
0.0
 20
0.0
 30
0.0
  9
$PUCSORGFRONT
 10
0.0
 20
0.0
 30
0.0
  9
$PUCSORGBACK
 10
0.0
 20
0.0
 30
0.0
  9
$USERI1
 70
     0
  9
$USERI2
 70
     0
  9
$USERI3
 70
     0
  9
$USERI4
 70
     0
  9
$USERI5
 70
     0
  9
$USERR1
 40
0.0
  9
$USERR2
 40
0.0
  9
$USERR3
 40
0.0
  9
$USERR4
 40
0.0
  9
$USERR5
 40
0.0
  9
$WORLDVIEW
 70
     1
  9
$SHADEDGE
 70
     3
  9
$SHADEDIF
 70
    70
  9
$TILEMODE
 70
     1
  9
$MAXACTVP
 70
    64
  9
$PINSBASE
 10
0.0
 20
0.0
 30
0.0
  9
$PLIMCHECK
 70
     0
  9
$PEXTMIN
 10
1.000000000000000E+20
 20
1.000000000000000E+20
 30
1.000000000000000E+20
  9
$PEXTMAX
 10
-1.000000000000000E+20
 20
-1.000000000000000E+20
 30
-1.000000000000000E+20
  9
$PLIMMIN
 10
0.0
 20
0.0
  9
$PLIMMAX
 10
420.0
 20
297.0
  9
$UNITMODE
 70
     0
  9
$VISRETAIN
 70
     1
  9
$PLINEGEN
 70
     0
  9
$PSLTSCALE
 70
     1
  9
$TREEDEPTH
 70
  3020
  9
$CMLSTYLE
  2
Standard
  9
$CMLJUST
 70
     1
  9
$CMLSCALE
 40
1.0
  9
$PROXYGRAPHICS
 70
     1
  9
$MEASUREMENT
 70
     1
  9
$CELWEIGHT
370
    -1
  9
$ENDCAPS
280
     0
  9
$JOINSTYLE
280
     0
  9
$LWDISPLAY
290
     0
  9
$INSUNITS
 70
     4
  9
$HYPERLINKBASE
  1

  9
$STYLESHEET
  1

  9
$XEDIT
290
     1
  9
$CEPSNTYPE
380
     0
  9
$PSTYLEMODE
290
     1
  9
$FINGERPRINTGUID
  2
{FAEB1C30-E019-11D5-929B-00C0DF256EC4}
  9
$VERSIONGUID
  2
{C6CB6910-5660-4D81-A854-F948522537B0}
  9
$EXTNAMES
290
     1
  9
$PSVPSCALE
 40
0.0
  9
$OLESTARTUP
290
     0
  0
ENDSEC
  0
SECTION
  2
CLASSES
  0
CLASS
  1
ACDBDICTIONARYWDFLT
  2
AcDbDictionaryWithDefault
  3
AutoCAD 2000
 90
        0
280
     0
281
     0
  0
CLASS
  1
ACDBPLACEHOLDER
  2
AcDbPlaceHolder
  3
AutoCAD 2000
 90
        0
280
     0
281
     0
  0
CLASS
  1
LAYOUT
  2
AcDbLayout
  3
AutoCAD 2000
 90
        0
280
     0
281
     0
  0
ENDSEC
  0
SECTION
  2
TABLES
  0
TABLE
  2
VPORT
  5
8
330
0
100
AcDbSymbolTable
 70
     6
  0
VPORT
  5
2B1
330
8
100
AcDbSymbolTableRecord
100
AcDbViewportTableRecord
  2
*Active
 70
     0
 10
0.0
 20
0.0
 11
1.0
 21
1.0
 12
433.74614134007
 22
186.3326951183672
 13
0.0
 23
0.0
 14
10.0
 24
10.0
 15
10.0
 25
10.0
 16
0.0
 26
0.0
 36
1.0
 17
0.0
 27
0.0
 37
0.0
 40
1153.192689500693
 41
1.183118741058655
 42
50.0
 43
0.0
 44
0.0
 50
0.0
 51
0.0
 71
     0
 72
   100
 73
     1
 74
     3
 75
     0
 76
     0
 77
     0
 78
     0
281
     0
 65
     1
110
0.0
120
0.0
130
0.0
111
1.0
121
0.0
131
0.0
112
0.0
122
1.0
132
0.0
 79
     0
146
0.0
  0
ENDTAB
  0
TABLE
  2
LTYPE
  5
5
330
0
100
AcDbSymbolTable
 70
     1
  0
LTYPE
  5
14
330
5
100
AcDbSymbolTableRecord
100
AcDbLinetypeTableRecord
  2
ByBlock
 70
     0
  3

 72
    65
 73
     0
 40
0.0
  0
LTYPE
  5
15
330
5
100
AcDbSymbolTableRecord
100
AcDbLinetypeTableRecord
  2
ByLayer
 70
     0
  3

 72
    65
 73
     0
 40
0.0
  0
LTYPE
  5
16
330
5
100
AcDbSymbolTableRecord
100
AcDbLinetypeTableRecord
  2
Continuous
 70
     0
  3

 72
    65
 73
     0
 40
0.0
  0
ENDTAB
  0
TABLE
  2
LAYER
  5
2
330
0
100
AcDbSymbolTable
 70
     5
  0
LAYER
  5
10
330
2
100
AcDbSymbolTableRecord
100
AcDbLayerTableRecord
  2
0
 70
     0
 62
     7
  6
Continuous
370
    -3
390
F
  0
LAYER
  5
2A0
330
2
100
AcDbSymbolTableRecord
100
AcDbLayerTableRecord
  2
Internal Cut
 70
     0
 62
     5
  6
Continuous
370
    -3
390
F
  0
LAYER
  5
2A1
330
2
100
AcDbSymbolTableRecord
100
AcDbLayerTableRecord
  2
Pocket Cut 1.1mm
 70
     0
 62
     3
  6
Continuous
370
    -3
390
F
  0
LAYER
  5
2A2
330
2
100
AcDbSymbolTableRecord
100
AcDbLayerTableRecord
  2
Kerf Pocket Cut 3mm
 70
     0
 62
     6
  6
Continuous
370
    -3
390
F
  0
LAYER
  5
2A3
330
2
100
AcDbSymbolTableRecord
100
AcDbLayerTableRecord
  2
External Cut
 70
     0
 62
     1
  6
Continuous
370
    -3
390
F
  0
ENDTAB
  0
TABLE
  2
STYLE
  5
3
330
0
100
AcDbSymbolTable
 70
     1
  0
STYLE
  5
11
330
3
100
AcDbSymbolTableRecord
100
AcDbTextStyleTableRecord
  2
Standard
 70
     0
 40
1.0
 41
1.0
 50
0.0
 71
     0
 42
2.5
  3
RomanS
  4

  0
ENDTAB
  0
TABLE
  2
VIEW
  5
6
330
0
100
AcDbSymbolTable
 70
     0
  0
ENDTAB
  0
TABLE
  2
UCS
  5
7
330
0
100
AcDbSymbolTable
 70
     0
  0
ENDTAB
  0
TABLE
  2
APPID
  5
9
330
0
100
AcDbSymbolTable
 70
     1
  0
APPID
  5
12
330
9
100
AcDbSymbolTableRecord
100
AcDbRegAppTableRecord
  2
ACAD
 70
     0
  0
ENDTAB
  0
TABLE
  2
DIMSTYLE
  5
A
330
0
100
AcDbSymbolTable
 70
     1
100
AcDbDimStyleTable
 71
     0
  0
DIMSTYLE
105
27
330
A
100
AcDbSymbolTableRecord
100
AcDbDimStyleTableRecord
  2
ISO-25
 70
     0
 41
2.5
 42
0.625
 44
1.25
 73
     0
 74
     0
 77
     1
 78
     8
 79
     2
140
2.5
141
2.5
146
0.0
147
0.625
271
     2
272
     0
273
     0
274
     0
278
    44
283
     0
289
     0
340
11
  0
ENDTAB
  0
TABLE
  2
BLOCK_RECORD
  5
1
330
0
100
AcDbSymbolTable
 70
     1
  0
BLOCK_RECORD
  5
1F
330
1
100
AcDbSymbolTableRecord
100
AcDbBlockTableRecord
  2
*Model_Space
340
22
  0
BLOCK_RECORD
  5
1B
330
1
100
AcDbSymbolTableRecord
100
AcDbBlockTableRecord
  2
*Paper_Space
340
1E
  0
BLOCK_RECORD
  5
23
330
1
100
AcDbSymbolTableRecord
100
AcDbBlockTableRecord
  2
*Paper_Space0
340
26
  0
ENDTAB
  0
ENDSEC
  0
SECTION
  2
BLOCKS
  0
BLOCK
  5
20
330
1F
100
AcDbEntity
  8
0
100
AcDbBlockBegin
  2
*Model_Space
 70
     0
 10
0.0
 20
0.0
 30
0.0
  3
*Model_Space
  1

  0
ENDBLK
  5
21
330
1F
100
AcDbEntity
  8
0
100
AcDbBlockEnd
  0
BLOCK
  5
1C
330
1B
100
AcDbEntity
 67
     1
  8
0
100
AcDbBlockBegin
  2
*Paper_Space
 70
     0
 10
0.0
 20
0.0
 30
0.0
  3
*Paper_Space
  1

  0
ENDBLK
  5
1D
330
1B
100
AcDbEntity
 67
     1
  8
0
100
AcDbBlockEnd
  0
BLOCK
  5
24
330
23
100
AcDbEntity
  8
0
100
AcDbBlockBegin
  2
*Paper_Space0
 70
     0
 10
0.0
 20
0.0
 30
0.0
  3
*Paper_Space0
  1

  0
ENDBLK
  5
25
330
23
100
AcDbEntity
  8
0
100
AcDbBlockEnd
  0
ENDSEC
  0
SECTION
  2
ENTITIES
  0
LWPOLYLINE
  5
168
330
1F
100
AcDbEntity
  8
Internal Cut
100
AcDbPolyline
 90
        5
 70
   128
 43
0.0
 10
594.805916
 20
593.0661599999999
 10
601.1871769999999
 20
566.5482339999999
 42
0.232502
 10
622.79272
 20
590.2854449999999
 10
597.042673
 20
596.2047269999999
 42
-0.096231
 10
594.805916
 20
593.0661599999999
  0
LWPOLYLINE
  5
169
330
1F
100
AcDbEntity
  8
Internal Cut
100
AcDbPolyline
 90
        5
 70
   128
 43
0.0
 10
710.230174
 20
591.861493
 42
-0.396209
 10
696.396845
 20
592.356579
 10
674.2845129999999
 20
577.8946419999999
 42
0.4832040000000001
 10
731.25209
 20
575.855811
 10
710.230174
 20
591.861493
  0
LWPOLYLINE
  5
16A
330
1F
100
AcDbEntity
  8
Internal Cut
100
AcDbPolyline
 90
        5
 70
   128
 43
0.0
 10
783.0024469999999
 20
584.517321
 42
0.63761
 10
848.939623
 20
582.617118
 10
824.6950739999999
 20
593.119721
 42
-0.539478
 10
807.811593
 20
593.6062749999999
 10
783.0024469999999
 20
584.517321
  0
LWPOLYLINE
  5
16C
330
1F
100
AcDbEntity
  8
Internal Cut
100
AcDbPolyline
 90
        5
 70
   128
 43
0.0
 10
188.8300879999999
 20
354.779291
 10
193.630082
 20
354.779291
 10
193.630082
 20
372.968743
 10
188.8300879999999
 20
372.968743
 10
188.8300879999999
 20
354.779291
  0
LWPOLYLINE
  5
16E
330
1F
100
AcDbEntity
  8
Internal Cut
100
AcDbPolyline
 90
        5
 70
   128
 43
0.0
 10
155.826291
 20
502.922133
 42
-0.4142140000000001
 10
148.35656
 20
495.4524029999999
 42
-0.4142140000000001
 10
140.8868299999999
 20
502.922133
 42
-0.4142140000000001
 10
148.35656
 20
510.3918629999999
 42
-0.4142140000000001
 10
155.826291
 20
502.922133
  0
LWPOLYLINE
  5
16F
330
1F
100
AcDbEntity
  8
Internal Cut
100
AcDbPolyline
 90
        5
 70
   128
 43
0.0
 10
150.245766
 20
516.310503
 42
0.6700619999999999
 10
155.515223
 20
514.392577
 10
165.8877639999999
 20
525.771528
 42
0.15389
 10
149.614187
 20
531.6946259999999
 10
150.245766
 20
516.310503
  0
LWPOLYLINE
  5
170
330
1F
100
AcDbEntity
  8
Internal Cut
100
AcDbPolyline
 90
        5
 70
   128
 43
0.0
 10
161.2134739999999
 20
507.107503
 10
176.4735489999999
 20
509.156944
 42
0.15389
 10
167.81456
 20
524.154754
 10
158.409654
 20
511.9638619999999
 42
0.6700619999999999
 10
161.2134739999999
 20
507.107503
  0
LWPOLYLINE
  5
171
330
1F
100
AcDbEntity
  8
Internal Cut
100
AcDbPolyline
 90
        5
 70
   128
 43
0.0
 10
141.1978969999999
 20
514.392577
 42
0.6700619999999999
 10
146.467355
 20
516.310503
 10
147.098934
 20
531.6946259999999
 42
0.15389
 10
130.8253569999999
 20
525.771528
 10
141.1978969999999
 20
514.392577
  0
LWPOLYLINE
  5
172
330
1F
100
AcDbEntity
  8
Internal Cut
100
AcDbPolyline
 90
        5
 70
   128
 43
0.0
 10
173.903083
 20
489.6250239999999
 10
160.895831
 20
497.864048
 42
-0.6700619999999999
 10
161.8695879999999
 20
503.386495
 10
176.9103179999999
 20
506.679904
 42
-0.15389
 10
173.903083
 20
489.6250239999999
  0
LWPOLYLINE
  5
173
330
1F
100
AcDbEntity
  8
Internal Cut
100
AcDbPolyline
 90
        5
 70
   128
 43
0.0
 10
120.239571
 20
509.156944
 10
135.499647
 20
507.107503
 42
0.6700619999999999
 10
138.3034669999999
 20
511.9638619999999
 10
128.898561
 20
524.154754
 42
0.15389
 10
120.239571
 20
509.156944
  0
LWPOLYLINE
  5
174
330
1F
100
AcDbEntity
  8
Internal Cut
100
AcDbPolyline
 90
        6
 70
   128
 43
0.0
 10
113.1233399999999
 20
510.9050919999999
 42
0.4142140000000001
 10
114.9336719999999
 20
508.0340869999999
 42
0.4142140000000001
 10
117.8046769999999
 20
509.844419
 42
-0.288954
 10
141.4342739999999
 20
533.4740169999999
 42
1.0
 10
140.373602
 20
538.1553539999999
 42
0.288954
 10
113.1233399999999
 20
510.9050919999999
  0
LWPOLYLINE
  5
175
330
1F
100
AcDbEntity
  8
Internal Cut
100
AcDbPolyline
 90
        5
 70
   128
 43
0.0
 10
159.3791149999999
 20
476.3149679999999
 42
0.15389
 10
172.645456
 20
487.44675
 10
159.006626
 20
494.591849
 42
0.6700619999999999
 10
154.710925
 20
490.9873269999999
 10
159.3791149999999
 20
476.3149679999999
  0
LWPOLYLINE
  5
176
330
1F
100
AcDbEntity
  8
Internal Cut
100
AcDbPolyline
 90
        5
 70
   128
 43
0.0
 10
122.8100379999999
 20
489.6250239999999
 10
135.8172889999999
 20
497.864048
 42
0.6700619999999999
 10
134.843533
 20
503.386495
 10
119.8028019999999
 20
506.679904
 42
0.15389
 10
122.8100379999999
 20
489.6250239999999
  0
LWPOLYLINE
  5
177
330
1F
100
AcDbEntity
  8
Internal Cut
100
AcDbPolyline
 90
        5
 70
   128
 43
0.0
 10
139.6975709999999
 20
475.454701
 42
0.15389
 10
157.01555
 20
475.454701
 10
151.16038
 20
489.695035
 42
0.6700619999999999
 10
145.55274
 20
489.695035
 10
139.6975709999999
 20
475.454701
  0
LWPOLYLINE
  5
178
330
1F
100
AcDbEntity
  8
Internal Cut
100
AcDbPolyline
 90
        5
 70
   128
 43
0.0
 10
137.334006
 20
476.3149679999999
 10
142.0021959999999
 20
490.9873269999999
 42
0.6700619999999999
 10
137.7064949999999
 20
494.591849
 10
124.0676639999999
 20
487.44675
 42
0.15389
 10
137.334006
 20
476.3149679999999
  0
LWPOLYLINE
  5
179
330
1F
100
AcDbEntity
  8
Internal Cut
100
AcDbPolyline
 90
        6
 70
   128
 43
0.0
 10
140.373602
 20
467.688913
 42
1.0
 10
141.4342739999999
 20
472.3702499999999
 42
-0.288954
 10
117.8046769999999
 20
495.999847
 42
0.4142140000000001
 10
114.9336719999999
 20
497.810179
 42
0.4142140000000001
 10
113.1233399999999
 20
494.939174
 42
0.288954
 10
140.373602
 20
467.688913
  0
LWPOLYLINE
  5
17A
330
1F
100
AcDbEntity
  8
Internal Cut
100
AcDbPolyline
 90
        5
 70
   128
 43
0.0
 10
155.826291
 20
502.922133
 42
-0.4142140000000001
 10
148.35656
 20
495.4524029999999
 42
-0.4142140000000001
 10
140.8868299999999
 20
502.922133
 42
-0.4142140000000001
 10
148.35656
 20
510.3918629999999
 42
-0.4142140000000001
 10
155.826291
 20
502.922133
  0
LWPOLYLINE
  5
17B
330
1F
100
AcDbEntity
  8
Internal Cut
100
AcDbPolyline
 90
        6
 70
   128
 43
0.0
 10
156.339519
 20
467.688913
 42
0.288954
 10
183.589781
 20
494.939174
 42
0.4142140000000001
 10
181.7794489999999
 20
497.810179
 42
0.4142140000000001
 10
178.908444
 20
495.999847
 42
-0.288954
 10
155.2788459999999
 20
472.3702499999999
 42
1.0
 10
156.339519
 20
467.688913
  0
LWPOLYLINE
  5
17C
330
1F
100
AcDbEntity
  8
Internal Cut
100
AcDbPolyline
 90
        6
 70
   128
 43
0.0
 10
178.908444
 20
509.844419
 42
0.4142140000000001
 10
181.7794489999999
 20
508.0340869999999
 42
0.4142140000000001
 10
183.589781
 20
510.9050919999999
 42
0.288954
 10
156.339519
 20
538.1553539999999
 42
1.0
 10
155.2788459999999
 20
533.4740169999999
 42
-0.288954
 10
178.908444
 20
509.844419
  0
LWPOLYLINE
  5
180
330
1F
100
AcDbEntity
  8
Internal Cut
100
AcDbPolyline
 90
        5
 70
   128
 43
0.0
 10
282.2364759999999
 20
354.779291
 10
287.03647
 20
354.779291
 10
287.03647
 20
372.968743
 10
282.2364759999999
 20
372.968743
 10
282.2364759999999
 20
354.779291
  0
LWPOLYLINE
  5
182
330
1F
100
AcDbEntity
  8
Internal Cut
100
AcDbPolyline
 90
        5
 70
   128
 43
0.0
 10
370.794385
 20
354.779291
 10
375.5943789999999
 20
354.779291
 10
375.5943789999999
 20
372.968743
 10
370.794385
 20
372.968743
 10
370.794385
 20
354.779291
  0
LWPOLYLINE
  5
184
330
1F
100
AcDbEntity
  8
Internal Cut
100
AcDbPolyline
 90
        5
 70
   128
 43
0.0
 10
461.781687
 20
355.177372
 10
466.5816809999999
 20
355.177372
 10
466.5816809999999
 20
373.366823
 10
461.781687
 20
373.366823
 10
461.781687
 20
355.177372
  0
LWPOLYLINE
  5
186
330
1F
100
AcDbEntity
  8
Internal Cut
100
AcDbPolyline
 90
        5
 70
   128
 43
0.0
 10
458.6442179999999
 20
445.249888
 10
463.444212
 20
445.249888
 10
463.444212
 20
463.4393389999999
 10
458.6442179999999
 20
463.4393389999999
 10
458.6442179999999
 20
445.249888
  0
LWPOLYLINE
  5
187
330
1F
100
AcDbEntity
  8
Internal Cut
100
AcDbPolyline
 90
        5
 70
   128
 43
0.0
 10
450.6802099999999
 20
411.0337239999999
 42
-0.4142140000000001
 10
420.364458
 20
380.717972
 42
-0.4142140000000001
 10
390.048706
 20
411.0337239999999
 42
-0.4142140000000001
 10
420.364458
 20
441.3494759999999
 42
-0.4142140000000001
 10
450.6802099999999
 20
411.0337239999999
  0
LWPOLYLINE
  5
188
330
1F
100
AcDbEntity
  8
Internal Cut
100
AcDbPolyline
 90
        5
 70
   128
 43
0.0
 10
367.6569149999999
 20
444.851807
 10
372.456909
 20
444.851807
 10
372.456909
 20
463.041258
 10
367.6569149999999
 20
463.041258
 10
367.6569149999999
 20
444.851807
  0
LWPOLYLINE
  5
189
330
1F
100
AcDbEntity
  8
Internal Cut
100
AcDbPolyline
 90
        5
 70
   128
 43
0.0
 10
359.6929079999999
 20
410.6356429999999
 42
-0.4142140000000001
 10
329.377156
 20
380.319891
 42
-0.4142140000000001
 10
299.061404
 20
410.6356429999999
 42
-0.4142140000000001
 10
329.377156
 20
440.951395
 42
-0.4142140000000001
 10
359.6929079999999
 20
410.6356429999999
  0
LWPOLYLINE
  5
18A
330
1F
100
AcDbEntity
  8
Internal Cut
100
AcDbPolyline
 90
        5
 70
   128
 43
0.0
 10
279.099006
 20
444.851807
 10
283.8989999999999
 20
444.851807
 10
283.8989999999999
 20
463.041258
 10
279.099006
 20
463.041258
 10
279.099006
 20
444.851807
  0
LWPOLYLINE
  5
18B
330
1F
100
AcDbEntity
  8
Internal Cut
100
AcDbPolyline
 90
        5
 70
   128
 43
0.0
 10
271.134999
 20
410.6356429999999
 42
-0.4142140000000001
 10
240.819247
 20
380.319891
 42
-0.4142140000000001
 10
210.503495
 20
410.6356429999999
 42
-0.4142140000000001
 10
240.819247
 20
440.951395
 42
-0.4142140000000001
 10
271.134999
 20
410.6356429999999
  0
LWPOLYLINE
  5
18C
330
1F
100
AcDbEntity
  8
Internal Cut
100
AcDbPolyline
 90
        5
 70
   128
 43
0.0
 10
185.6926179999999
 20
444.851807
 10
190.492612
 20
444.851807
 10
190.492612
 20
463.041258
 10
185.6926179999999
 20
463.041258
 10
185.6926179999999
 20
444.851807
  0
LWPOLYLINE
  5
18D
330
1F
100
AcDbEntity
  8
Internal Cut
100
AcDbPolyline
 90
        5
 70
   128
 43
0.0
 10
177.728611
 20
410.6356429999999
 42
-0.4142140000000001
 10
147.412859
 20
380.319891
 42
-0.4142140000000001
 10
117.097107
 20
410.6356429999999
 42
-0.4142140000000001
 10
147.412859
 20
440.951395
 42
-0.4142140000000001
 10
177.728611
 20
410.6356429999999
  0
LWPOLYLINE
  5
18E
330
1F
100
AcDbEntity
  8
Internal Cut
100
AcDbPolyline
 90
        5
 70
   128
 43
0.0
 10
243.456166
 20
502.922133
 42
-0.4142140000000001
 10
235.9864359999999
 20
495.4524029999999
 42
-0.4142140000000001
 10
228.516706
 20
502.922133
 42
-0.4142140000000001
 10
235.9864359999999
 20
510.3918629999999
 42
-0.4142140000000001
 10
243.456166
 20
502.922133
  0
LWPOLYLINE
  5
18F
330
1F
100
AcDbEntity
  8
Internal Cut
100
AcDbPolyline
 90
        5
 70
   128
 43
0.0
 10
237.875641
 20
516.310503
 42
0.6700619999999999
 10
243.145099
 20
514.392577
 10
253.51764
 20
525.771528
 42
0.15389
 10
237.2440629999999
 20
531.6946259999999
 10
237.875641
 20
516.310503
  0
LWPOLYLINE
  5
190
330
1F
100
AcDbEntity
  8
Internal Cut
100
AcDbPolyline
 90
        5
 70
   128
 43
0.0
 10
248.843349
 20
507.107503
 10
264.103425
 20
509.156944
 42
0.15389
 10
255.444436
 20
524.154754
 10
246.03953
 20
511.9638619999999
 42
0.6700619999999999
 10
248.843349
 20
507.107503
  0
LWPOLYLINE
  5
191
330
1F
100
AcDbEntity
  8
Internal Cut
100
AcDbPolyline
 90
        5
 70
   128
 43
0.0
 10
228.827773
 20
514.392577
 42
0.6700619999999999
 10
234.097231
 20
516.310503
 10
234.72881
 20
531.6946259999999
 42
0.15389
 10
218.4552319999999
 20
525.771528
 10
228.827773
 20
514.392577
  0
LWPOLYLINE
  5
192
330
1F
100
AcDbEntity
  8
Internal Cut
100
AcDbPolyline
 90
        5
 70
   128
 43
0.0
 10
261.5329589999999
 20
489.6250239999999
 10
248.5257069999999
 20
497.864048
 42
-0.6700619999999999
 10
249.499464
 20
503.386495
 10
264.5401939999999
 20
506.679904
 42
-0.15389
 10
261.5329589999999
 20
489.6250239999999
  0
LWPOLYLINE
  5
193
330
1F
100
AcDbEntity
  8
Internal Cut
100
AcDbPolyline
 90
        5
 70
   128
 43
0.0
 10
207.869447
 20
509.156944
 10
223.129523
 20
507.107503
 42
0.6700619999999999
 10
225.933343
 20
511.9638619999999
 10
216.528437
 20
524.154754
 42
0.15389
 10
207.869447
 20
509.156944
  0
LWPOLYLINE
  5
194
330
1F
100
AcDbEntity
  8
Internal Cut
100
AcDbPolyline
 90
        6
 70
   128
 43
0.0
 10
200.7532159999999
 20
510.9050919999999
 42
0.4142140000000001
 10
202.563548
 20
508.0340869999999
 42
0.4142140000000001
 10
205.4345529999999
 20
509.844419
 42
-0.288954
 10
229.0641499999999
 20
533.4740169999999
 42
1.0
 10
228.0034769999999
 20
538.1553539999999
 42
0.288954
 10
200.7532159999999
 20
510.9050919999999
  0
LWPOLYLINE
  5
195
330
1F
100
AcDbEntity
  8
Internal Cut
100
AcDbPolyline
 90
        5
 70
   128
 43
0.0
 10
247.0089909999999
 20
476.3149679999999
 42
0.15389
 10
260.275332
 20
487.44675
 10
246.636502
 20
494.591849
 42
0.6700619999999999
 10
242.3408009999999
 20
490.9873269999999
 10
247.0089909999999
 20
476.3149679999999
  0
LWPOLYLINE
  5
196
330
1F
100
AcDbEntity
  8
Internal Cut
100
AcDbPolyline
 90
        5
 70
   128
 43
0.0
 10
210.439914
 20
489.6250239999999
 10
223.4471649999999
 20
497.864048
 42
0.6700619999999999
 10
222.4734089999999
 20
503.386495
 10
207.432678
 20
506.679904
 42
0.15389
 10
210.439914
 20
489.6250239999999
  0
LWPOLYLINE
  5
197
330
1F
100
AcDbEntity
  8
Internal Cut
100
AcDbPolyline
 90
        5
 70
   128
 43
0.0
 10
227.327447
 20
475.454701
 42
0.15389
 10
244.6454259999999
 20
475.454701
 10
238.790256
 20
489.695035
 42
0.6700619999999999
 10
233.182616
 20
489.695035
 10
227.327447
 20
475.454701
  0
LWPOLYLINE
  5
198
330
1F
100
AcDbEntity
  8
Internal Cut
100
AcDbPolyline
 90
        5
 70
   128
 43
0.0
 10
224.9638819999999
 20
476.3149679999999
 10
229.632072
 20
490.9873269999999
 42
0.6700619999999999
 10
225.3363709999999
 20
494.591849
 10
211.69754
 20
487.44675
 42
0.15389
 10
224.9638819999999
 20
476.3149679999999
  0
LWPOLYLINE
  5
199
330
1F
100
AcDbEntity
  8
Internal Cut
100
AcDbPolyline
 90
        6
 70
   128
 43
0.0
 10
228.0034769999999
 20
467.688913
 42
1.0
 10
229.0641499999999
 20
472.3702499999999
 42
-0.288954
 10
205.4345529999999
 20
495.999847
 42
0.4142140000000001
 10
202.563548
 20
497.810179
 42
0.4142140000000001
 10
200.7532159999999
 20
494.939174
 42
0.288954
 10
228.0034769999999
 20
467.688913
  0
LWPOLYLINE
  5
19A
330
1F
100
AcDbEntity
  8
Internal Cut
100
AcDbPolyline
 90
        5
 70
   128
 43
0.0
 10
243.456166
 20
502.922133
 42
-0.4142140000000001
 10
235.9864359999999
 20
495.4524029999999
 42
-0.4142140000000001
 10
228.516706
 20
502.922133
 42
-0.4142140000000001
 10
235.9864359999999
 20
510.3918629999999
 42
-0.4142140000000001
 10
243.456166
 20
502.922133
  0
LWPOLYLINE
  5
19B
330
1F
100
AcDbEntity
  8
Internal Cut
100
AcDbPolyline
 90
        6
 70
   128
 43
0.0
 10
243.969395
 20
467.688913
 42
0.288954
 10
271.2196569999999
 20
494.939174
 42
0.4142140000000001
 10
269.409325
 20
497.810179
 42
0.4142140000000001
 10
266.5383199999999
 20
495.999847
 42
-0.288954
 10
242.9087219999999
 20
472.3702499999999
 42
1.0
 10
243.969395
 20
467.688913
  0
LWPOLYLINE
  5
19C
330
1F
100
AcDbEntity
  8
Internal Cut
100
AcDbPolyline
 90
        6
 70
   128
 43
0.0
 10
266.5383199999999
 20
509.844419
 42
0.4142140000000001
 10
269.409325
 20
508.0340869999999
 42
0.4142140000000001
 10
271.2196569999999
 20
510.9050919999999
 42
0.288954
 10
243.969395
 20
538.1553539999999
 42
1.0
 10
242.9087219999999
 20
533.4740169999999
 42
-0.288954
 10
266.5383199999999
 20
509.844419
  0
LWPOLYLINE
  5
19D
330
1F
100
AcDbEntity
  8
Internal Cut
100
AcDbPolyline
 90
        5
 70
   128
 43
0.0
 10
331.086042
 20
502.922133
 42
-0.4142140000000001
 10
323.616312
 20
495.4524029999999
 42
-0.4142140000000001
 10
316.1465819999999
 20
502.922133
 42
-0.4142140000000001
 10
323.616312
 20
510.3918629999999
 42
-0.4142140000000001
 10
331.086042
 20
502.922133
  0
LWPOLYLINE
  5
19E
330
1F
100
AcDbEntity
  8
Internal Cut
100
AcDbPolyline
 90
        5
 70
   128
 43
0.0
 10
325.5055169999999
 20
516.310503
 42
0.6700619999999999
 10
330.7749749999999
 20
514.392577
 10
341.147516
 20
525.771528
 42
0.15389
 10
324.873939
 20
531.6946259999999
 10
325.5055169999999
 20
516.310503
  0
LWPOLYLINE
  5
19F
330
1F
100
AcDbEntity
  8
Internal Cut
100
AcDbPolyline
 90
        5
 70
   128
 43
0.0
 10
336.473225
 20
507.107503
 10
351.7333009999999
 20
509.156944
 42
0.15389
 10
343.0743109999999
 20
524.154754
 10
333.6694049999999
 20
511.9638619999999
 42
0.6700619999999999
 10
336.473225
 20
507.107503
  0
LWPOLYLINE
  5
1A0
330
1F
100
AcDbEntity
  8
Internal Cut
100
AcDbPolyline
 90
        5
 70
   128
 43
0.0
 10
316.4576489999999
 20
514.392577
 42
0.6700619999999999
 10
321.7271069999999
 20
516.310503
 10
322.358685
 20
531.6946259999999
 42
0.15389
 10
306.0851079999999
 20
525.771528
 10
316.4576489999999
 20
514.392577
  0
LWPOLYLINE
  5
1A1
330
1F
100
AcDbEntity
  8
Internal Cut
100
AcDbPolyline
 90
        5
 70
   128
 43
0.0
 10
349.162835
 20
489.6250239999999
 10
336.155583
 20
497.864048
 42
-0.6700619999999999
 10
337.129339
 20
503.386495
 10
352.17007
 20
506.679904
 42
-0.15389
 10
349.162835
 20
489.6250239999999
  0
LWPOLYLINE
  5
1A2
330
1F
100
AcDbEntity
  8
Internal Cut
100
AcDbPolyline
 90
        5
 70
   128
 43
0.0
 10
295.4993229999999
 20
509.156944
 10
310.759399
 20
507.107503
 42
0.6700619999999999
 10
313.5632189999999
 20
511.9638619999999
 10
304.1583129999999
 20
524.154754
 42
0.15389
 10
295.4993229999999
 20
509.156944
  0
LWPOLYLINE
  5
1A3
330
1F
100
AcDbEntity
  8
Internal Cut
100
AcDbPolyline
 90
        6
 70
   128
 43
0.0
 10
288.3830919999999
 20
510.9050919999999
 42
0.4142140000000001
 10
290.193424
 20
508.0340869999999
 42
0.4142140000000001
 10
293.0644279999999
 20
509.844419
 42
-0.288954
 10
316.6940259999999
 20
533.4740169999999
 42
1.0
 10
315.6333529999999
 20
538.1553539999999
 42
0.288954
 10
288.3830919999999
 20
510.9050919999999
  0
LWPOLYLINE
  5
1A4
330
1F
100
AcDbEntity
  8
Internal Cut
100
AcDbPolyline
 90
        5
 70
   128
 43
0.0
 10
334.638866
 20
476.3149679999999
 42
0.15389
 10
347.905208
 20
487.44675
 10
334.2663779999999
 20
494.591849
 42
0.6700619999999999
 10
329.9706759999999
 20
490.9873269999999
 10
334.638866
 20
476.3149679999999
  0
LWPOLYLINE
  5
1A5
330
1F
100
AcDbEntity
  8
Internal Cut
100
AcDbPolyline
 90
        5
 70
   128
 43
0.0
 10
298.069789
 20
489.6250239999999
 10
311.077041
 20
497.864048
 42
0.6700619999999999
 10
310.103285
 20
503.386495
 10
295.0625539999999
 20
506.679904
 42
0.15389
 10
298.069789
 20
489.6250239999999
  0
LWPOLYLINE
  5
1A6
330
1F
100
AcDbEntity
  8
Internal Cut
100
AcDbPolyline
 90
        5
 70
   128
 43
0.0
 10
314.957322
 20
475.454701
 42
0.15389
 10
332.275302
 20
475.454701
 10
326.4201319999999
 20
489.695035
 42
0.6700619999999999
 10
320.812492
 20
489.695035
 10
314.957322
 20
475.454701
  0
LWPOLYLINE
  5
1A7
330
1F
100
AcDbEntity
  8
Internal Cut
100
AcDbPolyline
 90
        5
 70
   128
 43
0.0
 10
312.5937579999999
 20
476.3149679999999
 10
317.261948
 20
490.9873269999999
 42
0.6700619999999999
 10
312.966246
 20
494.591849
 10
299.327416
 20
487.44675
 42
0.15389
 10
312.5937579999999
 20
476.3149679999999
  0
LWPOLYLINE
  5
1A8
330
1F
100
AcDbEntity
  8
Internal Cut
100
AcDbPolyline
 90
        6
 70
   128
 43
0.0
 10
315.6333529999999
 20
467.688913
 42
1.0
 10
316.6940259999999
 20
472.3702499999999
 42
-0.288954
 10
293.0644279999999
 20
495.999847
 42
0.4142140000000001
 10
290.193424
 20
497.810179
 42
0.4142140000000001
 10
288.3830919999999
 20
494.939174
 42
0.288954
 10
315.6333529999999
 20
467.688913
  0
LWPOLYLINE
  5
1A9
330
1F
100
AcDbEntity
  8
Internal Cut
100
AcDbPolyline
 90
        5
 70
   128
 43
0.0
 10
331.086042
 20
502.922133
 42
-0.4142140000000001
 10
323.616312
 20
495.4524029999999
 42
-0.4142140000000001
 10
316.1465819999999
 20
502.922133
 42
-0.4142140000000001
 10
323.616312
 20
510.3918629999999
 42
-0.4142140000000001
 10
331.086042
 20
502.922133
  0
LWPOLYLINE
  5
1AA
330
1F
100
AcDbEntity
  8
Internal Cut
100
AcDbPolyline
 90
        6
 70
   128
 43
0.0
 10
331.5992709999999
 20
467.688913
 42
0.288954
 10
358.849533
 20
494.939174
 42
0.4142140000000001
 10
357.0392
 20
497.810179
 42
0.4142140000000001
 10
354.168196
 20
495.999847
 42
-0.288954
 10
330.538598
 20
472.3702499999999
 42
1.0
 10
331.5992709999999
 20
467.688913
  0
LWPOLYLINE
  5
1AB
330
1F
100
AcDbEntity
  8
Internal Cut
100
AcDbPolyline
 90
        6
 70
   128
 43
0.0
 10
354.168196
 20
509.844419
 42
0.4142140000000001
 10
357.0392
 20
508.0340869999999
 42
0.4142140000000001
 10
358.849533
 20
510.9050919999999
 42
0.288954
 10
331.5992709999999
 20
538.1553539999999
 42
1.0
 10
330.538598
 20
533.4740169999999
 42
-0.288954
 10
354.168196
 20
509.844419
  0
LWPOLYLINE
  5
1AC
330
1F
100
AcDbEntity
  8
Internal Cut
100
AcDbPolyline
 90
        5
 70
   128
 43
0.0
 10
418.715918
 20
502.922133
 42
-0.4142140000000001
 10
411.2461879999999
 20
495.4524029999999
 42
-0.4142140000000001
 10
403.776458
 20
502.922133
 42
-0.4142140000000001
 10
411.2461879999999
 20
510.3918629999999
 42
-0.4142140000000001
 10
418.715918
 20
502.922133
  0
LWPOLYLINE
  5
1AD
330
1F
100
AcDbEntity
  8
Internal Cut
100
AcDbPolyline
 90
        5
 70
   128
 43
0.0
 10
413.135393
 20
516.310503
 42
0.6700619999999999
 10
418.4048509999999
 20
514.392577
 10
428.777392
 20
525.771528
 42
0.15389
 10
412.503814
 20
531.6946259999999
 10
413.135393
 20
516.310503
  0
LWPOLYLINE
  5
1AE
330
1F
100
AcDbEntity
  8
Internal Cut
100
AcDbPolyline
 90
        5
 70
   128
 43
0.0
 10
424.1031009999999
 20
507.107503
 10
439.3631769999999
 20
509.156944
 42
0.15389
 10
430.7041869999999
 20
524.154754
 10
421.2992809999999
 20
511.9638619999999
 42
0.6700619999999999
 10
424.1031009999999
 20
507.107503
  0
LWPOLYLINE
  5
1AF
330
1F
100
AcDbEntity
  8
Internal Cut
100
AcDbPolyline
 90
        5
 70
   128
 43
0.0
 10
404.087525
 20
514.392577
 42
0.6700619999999999
 10
409.3569829999999
 20
516.310503
 10
409.988561
 20
531.6946259999999
 42
0.15389
 10
393.7149839999999
 20
525.771528
 10
404.087525
 20
514.392577
  0
LWPOLYLINE
  5
1B0
330
1F
100
AcDbEntity
  8
Internal Cut
100
AcDbPolyline
 90
        5
 70
   128
 43
0.0
 10
436.7927110000001
 20
489.6250239999999
 10
423.785459
 20
497.864048
 42
-0.6700619999999999
 10
424.759215
 20
503.386495
 10
439.799946
 20
506.679904
 42
-0.15389
 10
436.7927110000001
 20
489.6250239999999
  0
LWPOLYLINE
  5
1B1
330
1F
100
AcDbEntity
  8
Internal Cut
100
AcDbPolyline
 90
        5
 70
   128
 43
0.0
 10
383.129199
 20
509.156944
 10
398.3892749999999
 20
507.107503
 42
0.6700619999999999
 10
401.193094
 20
511.9638619999999
 10
391.7881879999999
 20
524.154754
 42
0.15389
 10
383.129199
 20
509.156944
  0
LWPOLYLINE
  5
1B2
330
1F
100
AcDbEntity
  8
Internal Cut
100
AcDbPolyline
 90
        6
 70
   128
 43
0.0
 10
376.0129669999999
 20
510.9050919999999
 42
0.4142140000000001
 10
377.823299
 20
508.0340869999999
 42
0.4142140000000001
 10
380.694304
 20
509.844419
 42
-0.288954
 10
404.3239019999999
 20
533.4740169999999
 42
1.0
 10
403.263229
 20
538.1553539999999
 42
0.288954
 10
376.0129669999999
 20
510.9050919999999
  0
LWPOLYLINE
  5
1B3
330
1F
100
AcDbEntity
  8
Internal Cut
100
AcDbPolyline
 90
        5
 70
   128
 43
0.0
 10
422.2687419999999
 20
476.3149679999999
 42
0.15389
 10
435.5350839999999
 20
487.44675
 10
421.8962539999999
 20
494.591849
 42
0.6700619999999999
 10
417.600552
 20
490.9873269999999
 10
422.2687419999999
 20
476.3149679999999
  0
LWPOLYLINE
  5
1B4
330
1F
100
AcDbEntity
  8
Internal Cut
100
AcDbPolyline
 90
        5
 70
   128
 43
0.0
 10
385.6996649999999
 20
489.6250239999999
 10
398.7069169999999
 20
497.864048
 42
0.6700619999999999
 10
397.7331599999999
 20
503.386495
 10
382.6924299999999
 20
506.679904
 42
0.15389
 10
385.6996649999999
 20
489.6250239999999
  0
LWPOLYLINE
  5
1B5
330
1F
100
AcDbEntity
  8
Internal Cut
100
AcDbPolyline
 90
        5
 70
   128
 43
0.0
 10
402.5871979999999
 20
475.454701
 42
0.15389
 10
419.9051769999999
 20
475.454701
 10
414.0500079999999
 20
489.695035
 42
0.6700619999999999
 10
408.442368
 20
489.695035
 10
402.5871979999999
 20
475.454701
  0
LWPOLYLINE
  5
1B6
330
1F
100
AcDbEntity
  8
Internal Cut
100
AcDbPolyline
 90
        5
 70
   128
 43
0.0
 10
400.223633
 20
476.3149679999999
 10
404.8918229999999
 20
490.9873269999999
 42
0.6700619999999999
 10
400.596122
 20
494.591849
 10
386.9572919999999
 20
487.44675
 42
0.15389
 10
400.223633
 20
476.3149679999999
  0
LWPOLYLINE
  5
1B7
330
1F
100
AcDbEntity
  8
Internal Cut
100
AcDbPolyline
 90
        6
 70
   128
 43
0.0
 10
403.263229
 20
467.688913
 42
1.0
 10
404.3239019999999
 20
472.3702499999999
 42
-0.288954
 10
380.694304
 20
495.999847
 42
0.4142140000000001
 10
377.823299
 20
497.810179
 42
0.4142140000000001
 10
376.0129669999999
 20
494.939174
 42
0.288954
 10
403.263229
 20
467.688913
  0
LWPOLYLINE
  5
1B8
330
1F
100
AcDbEntity
  8
Internal Cut
100
AcDbPolyline
 90
        5
 70
   128
 43
0.0
 10
418.715918
 20
502.922133
 42
-0.4142140000000001
 10
411.2461879999999
 20
495.4524029999999
 42
-0.4142140000000001
 10
403.776458
 20
502.922133
 42
-0.4142140000000001
 10
411.2461879999999
 20
510.3918629999999
 42
-0.4142140000000001
 10
418.715918
 20
502.922133
  0
LWPOLYLINE
  5
1B9
330
1F
100
AcDbEntity
  8
Internal Cut
100
AcDbPolyline
 90
        6
 70
   128
 43
0.0
 10
419.2291469999999
 20
467.688913
 42
0.288954
 10
446.479408
 20
494.939174
 42
0.4142140000000001
 10
444.669076
 20
497.810179
 42
0.4142140000000001
 10
441.798071
 20
495.999847
 42
-0.288954
 10
418.1684739999999
 20
472.3702499999999
 42
1.0
 10
419.2291469999999
 20
467.688913
  0
LWPOLYLINE
  5
1BA
330
1F
100
AcDbEntity
  8
Internal Cut
100
AcDbPolyline
 90
        6
 70
   128
 43
0.0
 10
441.798071
 20
509.844419
 42
0.4142140000000001
 10
444.669076
 20
508.0340869999999
 42
0.4142140000000001
 10
446.479408
 20
510.9050919999999
 42
0.288954
 10
419.2291469999999
 20
538.1553539999999
 42
1.0
 10
418.1684739999999
 20
533.4740169999999
 42
-0.288954
 10
441.798071
 20
509.844419
  0
LWPOLYLINE
  5
1BB
330
1F
100
AcDbEntity
  8
Internal Cut
100
AcDbPolyline
 90
        5
 70
   128
 43
0.0
 10
468.3583879999999
 20
592.9193989999999
 10
461.9771280000001
 20
566.4014729999999
 42
-0.232502
 10
440.371585
 20
590.1386839999999
 10
466.121632
 20
596.0579659999999
 42
0.096231
 10
468.3583879999999
 20
592.9193989999999
  0
LWPOLYLINE
  5
1BC
330
1F
100
AcDbEntity
  8
Internal Cut
100
AcDbPolyline
 90
        5
 70
   128
 43
0.0
 10
352.93413
 20
591.714733
 42
0.396209
 10
366.76746
 20
592.2098179999998
 10
388.879791
 20
577.7478809999999
 42
-0.4832040000000001
 10
331.912214
 20
575.7090509999999
 10
352.93413
 20
591.714733
  0
LWPOLYLINE
  5
1BD
330
1F
100
AcDbEntity
  8
Internal Cut
100
AcDbPolyline
 90
        5
 70
   128
 43
0.0
 10
277.504726
 20
584.517321
 42
-0.63761
 10
211.567549
 20
582.617118
 10
235.8120979999999
 20
593.119721
 42
0.539478
 10
252.6955799999999
 20
593.6062749999999
 10
277.504726
 20
584.517321
  0
LWPOLYLINE
  5
1C8
330
1F
100
AcDbEntity
  8
External Cut
100
AcDbPolyline
 90
       16
 70
   128
 43
0.0
 10
781.6119769999999
 20
588.3127349999999
 10
806.421124
 20
597.40169
 42
-0.396409
 10
814.296953
 20
608.791098
 10
814.1524559999998
 20
603.7770599999999
 42
0.4142140000000001
 10
811.6843200000001
 20
601.447194
 42
0.4142140000000001
 10
814.0141859999999
 20
598.979057
 10
818.812188
 20
598.8407869999999
 42
1.0
 10
818.9504580000001
 20
603.638789
 10
819.094955
 20
608.652828
 42
-0.396409
 10
826.3018089999999
 20
596.82876
 10
850.546358
 20
586.3261579999999
 42
0.063208
 10
852.6077550000001
 20
595.2523589999999
 10
864.1699089999999
 20
594.08397
 42
-0.9305659999999999
 10
768.457801
 20
596.8422389999999
 10
780.0680530000001
 20
597.342836
 42
0.063208
 10
781.6119769999999
 20
588.3127349999999
  0
LWPOLYLINE
  5
1CA
330
1F
100
AcDbEntity
  8
External Cut
100
AcDbPolyline
 90
       16
 70
   128
 43
0.0
 10
749.295199
 20
584.844528
 42
-0.744898
 10
657.3302449999999
 20
586.612617
 10
668.526794
 20
589.724822
 42
0.063208
 10
672.072061
 20
581.2774849999999
 10
694.184393
 20
595.739422
 42
-0.284687
 10
696.057216
 20
606.218012
 10
698.8872269999999
 20
602.076454
 42
1.0
 10
701.595303
 20
598.1133409999999
 10
705.5584159999999
 20
600.821417
 42
1.0
 10
702.85034
 20
604.78453
 10
700.0203289999999
 20
608.9260879999999
 42
-0.676762
 10
712.678795
 20
595.07752
 10
733.700711
 20
579.0718379999999
 10
742.226529
 20
586.588702
 42
-0.263922
 10
743.2026679999999
 20
586.793203
 10
749.295199
 20
584.844528
  0
LWPOLYLINE
  5
1EA
330
1F
100
AcDbEntity
  8
External Cut
100
AcDbPolyline
 90
       52
 70
   128
 43
0.0
 10
539.9919589999999
 20
596.653355
 10
551.577683
 20
597.558637
 42
0.45294
 10
595.3715099999999
 20
564.8005429999999
 10
589.2159389999999
 20
590.3805949999999
 42
-0.9553119999999999
 10
585.5679999999999
 20
610.237694
 10
585.5057709999999
 20
605.2219599999999
 42
1.0
 10
585.446224
 20
600.422335
 10
590.2458479999999
 20
600.362787
 42
0.4142140000000001
 10
592.675434
 20
602.7328259999999
 42
0.4142140000000001
 10
590.305396
 20
605.162412
 10
590.367625
 20
610.1781459999999
 42
-0.349016
 10
597.9482309999999
 20
600.144084
 10
623.698278
 20
594.224803
 42
0.030871
 10
624.184903
 20
598.6863099999999
 10
635.793152
 20
598.1412569999999
 42
-0.304486
 10
603.926146
 20
555.166193
 10
605.7846459999999
 20
547.443023
 42
0.237553
 10
606.9593539999999
 20
546.0557219999999
 10
608.770664
 20
545.2862190000001
 10
610.1641049999999
 20
544.5956869999999
 10
611.45975
 20
543.839198
 10
612.6601769999999
 20
543.0067069999999
 10
613.767961
 20
542.0881719999999
 10
614.7856809999999
 20
541.0735469999999
 10
615.715912
 20
539.95279
 10
609.027252
 20
540.0114589999999
 10
608.9851509999999
 20
535.2116489999999
 10
595.8488299999999
 20
535.326873
 10
595.890932
 20
540.1266829999999
 10
590.9979419999999
 20
540.1696009999999
 10
591.425799
 20
541.05121
 10
591.8836299999999
 20
541.8808019999999
 10
592.317958
 20
542.5632429999999
 10
592.7307769999999
 20
543.1176999999999
 10
593.1240809999999
 20
543.563342
 10
593.4998659999999
 20
543.919337
 10
593.8601259999999
 20
544.204854
 10
594.2068559999999
 20
544.439061
 10
594.541761
 20
544.638536
 10
594.865387
 20
544.809499
 10
595.1779889999999
 20
544.955579
 10
595.479823
 20
545.080404
 10
595.771144
 20
545.187605
 10
596.0522089999999
 20
545.2808089999999
 10
596.3232739999999
 20
545.363648
 10
596.5845929999999
 20
545.4397489999999
 10
596.83596
 20
545.5126599999999
 10
597.0753129999999
 20
545.5856009999999
 10
598.026572
 20
545.907648
 42
0.38801
 10
599.3434399999999
 20
548.2948150000001
 10
598.091173
 20
553.498729
 42
-0.454969
 10
539.9919589999999
 20
596.653355
  0
LWPOLYLINE
  5
207
330
1F
100
AcDbEntity
  8
External Cut
100
AcDbPolyline
 90
        5
 70
   128
 43
0.0
 10
202.5784489999999
 20
363.8740169999999
 42
-0.4142140000000001
 10
191.230085
 20
352.525653
 42
-0.4142140000000001
 10
179.8817209999999
 20
363.8740169999999
 42
-0.4142140000000001
 10
191.230085
 20
375.2223809999999
 42
-0.4142140000000001
 10
202.5784489999999
 20
363.8740169999999
  0
LWPOLYLINE
  5
208
330
1F
100
AcDbEntity
  8
External Cut
100
AcDbPolyline
 90
        5
 70
   128
 43
0.0
 10
188.7775629999999
 20
502.922133
 42
-0.4142140000000001
 10
148.35656
 20
462.5011309999999
 42
-0.4142140000000001
 10
107.935558
 20
502.922133
 42
-0.4142140000000001
 10
148.35656
 20
543.3431360000001
 42
-0.4142140000000001
 10
188.7775629999999
 20
502.922133
  0
LWPOLYLINE
  5
20C
330
1F
100
AcDbEntity
  8
External Cut
100
AcDbPolyline
 90
        5
 70
   128
 43
0.0
 10
295.984838
 20
363.8740169999999
 42
-0.4142140000000001
 10
284.636473
 20
352.525653
 42
-0.4142140000000001
 10
273.2881089999999
 20
363.8740169999999
 42
-0.4142140000000001
 10
284.636473
 20
375.2223809999999
 42
-0.4142140000000001
 10
295.984838
 20
363.8740169999999
  0
LWPOLYLINE
  5
20E
330
1F
100
AcDbEntity
  8
External Cut
100
AcDbPolyline
 90
        5
 70
   128
 43
0.0
 10
384.542746
 20
363.8740169999999
 42
-0.4142140000000001
 10
373.1943819999999
 20
352.525653
 42
-0.4142140000000001
 10
361.846018
 20
363.8740169999999
 42
-0.4142140000000001
 10
373.1943819999999
 20
375.2223809999999
 42
-0.4142140000000001
 10
384.542746
 20
363.8740169999999
  0
LWPOLYLINE
  5
210
330
1F
100
AcDbEntity
  8
External Cut
100
AcDbPolyline
 90
        5
 70
   128
 43
0.0
 10
475.530049
 20
364.2720979999999
 42
-0.4142140000000001
 10
464.1816839999999
 20
352.923733
 42
-0.4142140000000001
 10
452.83332
 20
364.2720979999999
 42
-0.4142140000000001
 10
464.1816839999999
 20
375.620462
 42
-0.4142140000000001
 10
475.530049
 20
364.2720979999999
  0
LWPOLYLINE
  5
211
330
1F
100
AcDbEntity
  8
External Cut
100
AcDbPolyline
 90
      209
 70
   128
 43
0.0
 10
436.2173959999999
 20
376.090304
 42
-0.203461
 10
437.7327339999999
 20
377.941239
 42
-0.203461
 10
440.1168329999999
 20
378.136886
 42
-0.0722
 10
440.509005
 20
377.9407689999999
 42
0.068231
 10
440.8184959999999
 20
377.782929
 42
0.239296
 10
443.102648
 20
378.0917689999999
 42
0.239296
 10
444.2013889999999
 20
380.117972
 42
0.068231
 10
444.163554
 20
380.463321
 42
-0.0722
 10
444.1192469999999
 20
380.8995529999999
 42
-0.203461
 10
445.1475929999999
 20
383.059347
 42
-0.203461
 10
447.4155940000001
 20
383.819862
 42
-0.0722
 10
447.8433039999999
 20
383.723295
 42
0.068231
 10
448.1815749999999
 20
383.6441089999999
 42
0.239296
 10
450.3254429999999
 20
384.490607
 42
0.239296
 10
450.907355
 20
386.7208779999999
 42
0.068231
 10
450.787972
 20
387.0471379999999
 42
-0.0722
 10
450.640555
 20
387.4600899999999
 42
-0.203461
 10
451.1221469999999
 20
389.803224
 42
-0.203461
 10
453.14224
 20
391.0844069999999
 42
-0.0722
 10
453.580632
 20
391.093005
 42
0.068231
 10
453.928024
 20
391.097073
 42
0.239296
 10
455.807015
 20
392.4320349999999
 42
0.239296
 10
455.838279
 20
394.736759
 42
0.068231
 10
455.6442849999999
 20
395.024968
 42
-0.0722
 10
455.402326
 20
395.390641
 42
-0.203461
 10
455.309176
 20
397.780941
 42
-0.203461
 10
456.963962
 20
399.5083349999999
 42
-0.0722
 10
457.387557
 20
399.621597
 42
0.068231
 10
457.7238809999999
 20
399.708683
 42
0.239296
 10
459.228794
 20
401.454525
 42
0.239296
 10
458.707593
 20
403.69976
 42
0.068231
 10
458.4502639999999
 20
403.933169
 42
-0.0722
 10
458.127824
 20
404.2303109999999
 42
-0.203461
 10
457.465344
 20
406.528861
 42
-0.203461
 10
458.6586529999999
 20
408.6020759999999
 42
-0.0722
 10
459.042833
 20
408.8134199999999
 42
0.068231
 10
459.3485440000001
 20
408.9784629999999
 42
0.239296
 10
460.3919199999999
 20
411.0337239999999
 42
0.239296
 10
459.3485440000001
 20
413.088985
 42
0.068231
 10
459.042833
 20
413.2540279999999
 42
-0.0722
 10
458.6586529999999
 20
413.465371
 42
-0.203461
 10
457.465344
 20
415.5385869999999
 42
-0.203461
 10
458.127824
 20
417.8371359999999
 42
-0.0722
 10
458.4502639999999
 20
418.134279
 42
0.068231
 10
458.707593
 20
418.367687
 42
0.239296
 10
459.228794
 20
420.6129219999999
 42
0.239296
 10
457.7238809999999
 20
422.358765
 42
0.068231
 10
457.387557
 20
422.4458509999999
 42
-0.0722
 10
456.963962
 20
422.5591129999999
 42
-0.203461
 10
455.309176
 20
424.286507
 42
-0.203461
 10
455.402326
 20
426.6768059999999
 42
-0.0722
 10
455.6442849999999
 20
427.0424799999999
 42
0.068231
 10
455.838279
 20
427.3306889999999
 42
0.239296
 10
455.807015
 20
429.635413
 42
0.239296
 10
453.928024
 20
430.9703749999999
 42
0.068231
 10
453.580632
 20
430.9744429999999
 42
-0.0722
 10
453.14224
 20
430.98304
 42
-0.203461
 10
451.1221469999999
 20
432.264224
 42
-0.203461
 10
450.640555
 20
434.607358
 42
-0.0722
 10
450.787972
 20
435.0203089999999
 42
0.068231
 10
450.907355
 20
435.346569
 42
0.239296
 10
450.3254429999999
 20
437.576841
 42
0.239296
 10
448.1815749999999
 20
438.4233389999999
 42
0.068231
 10
447.8433039999999
 20
438.3441519999999
 42
-0.0722
 10
447.4155940000001
 20
438.247586
 42
-0.203461
 10
445.1475929999999
 20
439.0081
 42
-0.203461
 10
444.1192469999999
 20
441.167895
 42
-0.0722
 10
444.163554
 20
441.6041259999999
 42
0.068231
 10
444.2013889999999
 20
441.949476
 42
0.239296
 10
443.102648
 20
443.975679
 42
0.239296
 10
440.8184959999999
 20
444.2845179999999
 42
0.068231
 10
440.509005
 20
444.126679
 42
-0.0722
 10
440.1168329999999
 20
443.9305609999999
 42
-0.203461
 10
437.7327339999999
 20
444.126208
 42
-0.203461
 10
436.2173959999999
 20
445.977144
 42
-0.0722
 10
436.156019
 20
446.411302
 42
0.068231
 10
436.110108
 20
446.755671
 42
0.239296
 10
434.558392
 20
448.4600509999999
 42
0.239296
 10
432.2667029999999
 20
448.213282
 42
0.068231
 10
432.003979
 20
447.9859629999999
 42
-0.0722
 10
431.670137
 20
447.7016919999999
 42
-0.203461
 10
429.308493
 20
447.3211009999999
 42
-0.203461
 10
427.3942309999999
 20
448.755608
 42
-0.0722
 10
427.230736
 20
449.162462
 42
0.068231
 10
427.103746
 20
449.485837
 42
0.239296
 10
425.1892349999999
 20
450.76934
 42
0.239296
 10
423.023195
 20
449.981306
 42
0.068231
 10
422.8225059999999
 20
449.697718
 42
-0.0722
 10
422.566395
 20
449.341813
 42
-0.203461
 10
420.364458
 20
448.4071039999999
 42
-0.203461
 10
418.1625209999999
 20
449.341813
 42
-0.0722
 10
417.9064109999999
 20
449.697718
 42
0.068231
 10
417.705722
 20
449.981306
 42
0.239296
 10
415.539681
 20
450.76934
 42
0.239296
 10
413.62517
 20
449.485837
 42
0.068231
 10
413.49818
 20
449.162462
 42
-0.0722
 10
413.334685
 20
448.755608
 42
-0.203461
 10
411.4204229999999
 20
447.3211009999999
 42
-0.203461
 10
409.0587789999999
 20
447.7016919999999
 42
-0.0722
 10
408.724937
 20
447.9859629999999
 42
0.068231
 10
408.4622129999999
 20
448.213282
 42
0.239296
 10
406.170525
 20
448.4600509999999
 42
0.239296
 10
404.618809
 20
446.755671
 42
0.068231
 10
404.5728969999999
 20
446.411302
 42
-0.0722
 10
404.51152
 20
445.977144
 42
-0.203461
 10
402.9961819999999
 20
444.126208
 42
-0.203461
 10
400.6120829999999
 20
443.9305609999999
 42
-0.0722
 10
400.2199109999999
 20
444.126679
 42
0.068231
 10
399.91042
 20
444.2845179999999
 42
0.239296
 10
397.626268
 20
443.975679
 42
0.239296
 10
396.527527
 20
441.949476
 42
0.068231
 10
396.5653619999999
 20
441.6041259999999
 42
-0.0722
 10
396.6096699999999
 20
441.167895
 42
-0.203461
 10
395.581323
 20
439.0081
 42
-0.203461
 10
393.313322
 20
438.247586
 42
-0.0722
 10
392.885612
 20
438.3441519999999
 42
0.068231
 10
392.547341
 20
438.4233389999999
 42
0.239296
 10
390.403473
 20
437.576841
 42
0.239296
 10
389.8215609999999
 20
435.346569
 42
0.068231
 10
389.940945
 20
435.0203089999999
 42
-0.0722
 10
390.088362
 20
434.607358
 42
-0.203461
 10
389.6067689999999
 20
432.264224
 42
-0.203461
 10
387.5866759999999
 20
430.98304
 42
-0.0722
 10
387.148284
 20
430.9744429999999
 42
0.068231
 10
386.8008919999999
 20
430.9703749999999
 42
0.239296
 10
384.921901
 20
429.635413
 42
0.239296
 10
384.890637
 20
427.3306889999999
 42
0.068231
 10
385.084631
 20
427.0424799999999
 42
-0.0722
 10
385.32659
 20
426.6768059999999
 42
-0.203461
 10
385.4197409999999
 20
424.286507
 42
-0.203461
 10
383.764955
 20
422.5591129999999
 42
-0.0722
 10
383.34136
 20
422.4458509999999
 42
0.068231
 10
383.005035
 20
422.358765
 42
0.239296
 10
381.500122
 20
420.6129219999999
 42
0.239296
 10
382.021323
 20
418.367687
 42
0.068231
 10
382.2786529999999
 20
418.134279
 42
-0.0722
 10
382.6010919999999
 20
417.8371359999999
 42
-0.203461
 10
383.263572
 20
415.5385869999999
 42
-0.203461
 10
382.070264
 20
413.465371
 42
-0.0722
 10
381.6860829999999
 20
413.2540279999999
 42
0.068231
 10
381.380373
 20
413.088985
 42
0.239296
 10
380.3369969999999
 20
411.0337239999999
 42
0.239296
 10
381.380373
 20
408.9784629999999
 42
0.068231
 10
381.6860829999999
 20
408.8134199999999
 42
-0.0722
 10
382.070264
 20
408.6020759999999
 42
-0.203461
 10
383.263572
 20
406.528861
 42
-0.203461
 10
382.6010919999999
 20
404.2303109999999
 42
-0.0722
 10
382.2786529999999
 20
403.933169
 42
0.068231
 10
382.021323
 20
403.69976
 42
0.239296
 10
381.500122
 20
401.454525
 42
0.239296
 10
383.005035
 20
399.708683
 42
0.068231
 10
383.34136
 20
399.621597
 42
-0.0722
 10
383.764955
 20
399.5083349999999
 42
-0.203461
 10
385.4197409999999
 20
397.780941
 42
-0.203461
 10
385.32659
 20
395.390641
 42
-0.0722
 10
385.084631
 20
395.024968
 42
0.068231
 10
384.890637
 20
394.736759
 42
0.239296
 10
384.921901
 20
392.4320349999999
 42
0.239296
 10
386.8008919999999
 20
391.097073
 42
0.068231
 10
387.148284
 20
391.093005
 42
-0.0722
 10
387.5866759999999
 20
391.0844069999999
 42
-0.203461
 10
389.6067689999999
 20
389.803224
 42
-0.203461
 10
390.088362
 20
387.4600899999999
 42
-0.0722
 10
389.940945
 20
387.0471379999999
 42
0.068231
 10
389.8215609999999
 20
386.7208779999999
 42
0.239296
 10
390.403473
 20
384.490607
 42
0.239296
 10
392.547341
 20
383.6441089999999
 42
0.068231
 10
392.885612
 20
383.723295
 42
-0.0722
 10
393.313322
 20
383.819862
 42
-0.203461
 10
395.581323
 20
383.059347
 42
-0.203461
 10
396.6096699999999
 20
380.8995529999999
 42
-0.0722
 10
396.5653619999999
 20
380.463321
 42
0.068231
 10
396.527527
 20
380.117972
 42
0.239296
 10
397.626268
 20
378.0917689999999
 42
0.239296
 10
399.91042
 20
377.782929
 42
0.068231
 10
400.2199109999999
 20
377.9407689999999
 42
-0.0722
 10
400.6120829999999
 20
378.136886
 42
-0.203461
 10
402.9961819999999
 20
377.941239
 42
-0.203461
 10
404.51152
 20
376.090304
 42
-0.0722
 10
404.5728969999999
 20
375.656145
 42
0.068231
 10
404.618809
 20
375.3117759999999
 42
0.239296
 10
406.170525
 20
373.607397
 42
0.239296
 10
408.4622129999999
 20
373.8541649999999
 42
0.068231
 10
408.724937
 20
374.081484
 42
-0.0722
 10
409.0587789999999
 20
374.365756
 42
-0.203461
 10
411.4204229999999
 20
374.746346
 42
-0.203461
 10
413.334685
 20
373.31184
 42
-0.0722
 10
413.49818
 20
372.9049859999999
 42
0.068231
 10
413.62517
 20
372.581611
 42
0.239296
 10
415.539681
 20
371.298108
 42
0.239296
 10
417.705722
 20
372.0861419999999
 42
0.068231
 10
417.9064109999999
 20
372.369729
 42
-0.0722
 10
418.1625209999999
 20
372.7256339999999
 42
-0.203461
 10
420.364458
 20
373.660344
 42
-0.203461
 10
422.566395
 20
372.7256339999999
 42
-0.0722
 10
422.8225059999999
 20
372.369729
 42
0.068231
 10
423.023195
 20
372.0861419999999
 42
0.239296
 10
425.1892349999999
 20
371.298108
 42
0.239296
 10
427.103746
 20
372.581611
 42
0.068231
 10
427.230736
 20
372.9049859999999
 42
-0.0722
 10
427.3942309999999
 20
373.31184
 42
-0.203461
 10
429.308493
 20
374.746346
 42
-0.203461
 10
431.670137
 20
374.365756
 42
-0.0722
 10
432.003979
 20
374.081484
 42
0.068231
 10
432.2667029999999
 20
373.8541649999999
 42
0.239296
 10
434.558392
 20
373.607397
 42
0.239296
 10
436.110108
 20
375.3117759999999
 42
0.068231
 10
436.156019
 20
375.656145
 42
-0.0722
 10
436.2173959999999
 20
376.090304
  0
LWPOLYLINE
  5
212
330
1F
100
AcDbEntity
  8
External Cut
100
AcDbPolyline
 90
        5
 70
   128
 43
0.0
 10
472.392579
 20
454.3446139999999
 42
-0.4142140000000001
 10
461.044215
 20
442.996249
 42
-0.4142140000000001
 10
449.6958499999999
 20
454.3446139999999
 42
-0.4142140000000001
 10
461.044215
 20
465.692978
 42
-0.4142140000000001
 10
472.392579
 20
454.3446139999999
  0
LWPOLYLINE
  5
213
330
1F
100
AcDbEntity
  8
External Cut
100
AcDbPolyline
 90
      209
 70
   128
 43
0.0
 10
345.230094
 20
375.692223
 42
-0.203461
 10
346.7454319999999
 20
377.543159
 42
-0.203461
 10
349.1295309999999
 20
377.738806
 42
-0.0722
 10
349.521703
 20
377.5426879999999
 42
0.068231
 10
349.8311939999999
 20
377.384849
 42
0.239296
 10
352.1153459999999
 20
377.693688
 42
0.239296
 10
353.214087
 20
379.719891
 42
0.068231
 10
353.176252
 20
380.065241
 42
-0.0722
 10
353.1319439999999
 20
380.501472
 42
-0.203461
 10
354.160291
 20
382.661266
 42
-0.203461
 10
356.428291
 20
383.421781
 42
-0.0722
 10
356.856002
 20
383.325215
 42
0.068231
 10
357.1942729999999
 20
383.2460279999999
 42
0.239296
 10
359.338141
 20
384.0925259999999
 42
0.239296
 10
359.920053
 20
386.3227979999999
 42
0.068231
 10
359.8006689999999
 20
386.6490569999999
 42
-0.0722
 10
359.653252
 20
387.062009
 42
-0.203461
 10
360.134845
 20
389.405143
 42
-0.203461
 10
362.154938
 20
390.686327
 42
-0.0722
 10
362.5933299999999
 20
390.694924
 42
0.068231
 10
362.940722
 20
390.698992
 42
0.239296
 10
364.8197129999999
 20
392.033954
 42
0.239296
 10
364.8509769999999
 20
394.3386779999999
 42
0.068231
 10
364.656983
 20
394.626887
 42
-0.0722
 10
364.415024
 20
394.99256
 42
-0.203461
 10
364.321873
 20
397.38286
 42
-0.203461
 10
365.9766589999999
 20
399.1102539999999
 42
-0.0722
 10
366.400254
 20
399.223516
 42
0.068231
 10
366.7365779999999
 20
399.310602
 42
0.239296
 10
368.2414919999999
 20
401.056445
 42
0.239296
 10
367.720291
 20
403.3016799999999
 42
0.068231
 10
367.462961
 20
403.535088
 42
-0.0722
 10
367.140522
 20
403.8322309999999
 42
-0.203461
 10
366.478042
 20
406.1307799999999
 42
-0.203461
 10
367.67135
 20
408.203996
 42
-0.0722
 10
368.055531
 20
408.4153389999999
 42
0.068231
 10
368.361241
 20
408.5803819999999
 42
0.239296
 10
369.404617
 20
410.6356429999999
 42
0.239296
 10
368.361241
 20
412.690904
 42
0.068231
 10
368.055531
 20
412.8559469999999
 42
-0.0722
 10
367.67135
 20
413.067291
 42
-0.203461
 10
366.478042
 20
415.140506
 42
-0.203461
 10
367.140522
 20
417.4390559999999
 42
-0.0722
 10
367.462961
 20
417.7361979999999
 42
0.068231
 10
367.720291
 20
417.969607
 42
0.239296
 10
368.2414919999999
 20
420.2148419999999
 42
0.239296
 10
366.7365779999999
 20
421.9606839999999
 42
0.068231
 10
366.400254
 20
422.0477699999999
 42
-0.0722
 10
365.9766589999999
 20
422.161032
 42
-0.203461
 10
364.321873
 20
423.8884259999999
 42
-0.203461
 10
364.415024
 20
426.278726
 42
-0.0722
 10
364.656983
 20
426.6443989999999
 42
0.068231
 10
364.8509769999999
 20
426.9326079999999
 42
0.239296
 10
364.8197129999999
 20
429.237332
 42
0.239296
 10
362.940722
 20
430.572294
 42
0.068231
 10
362.5933299999999
 20
430.576362
 42
-0.0722
 10
362.154938
 20
430.584959
 42
-0.203461
 10
360.134845
 20
431.8661429999999
 42
-0.203461
 10
359.653252
 20
434.2092769999999
 42
-0.0722
 10
359.8006689999999
 20
434.622229
 42
0.068231
 10
359.920053
 20
434.9484889999999
 42
0.239296
 10
359.338141
 20
437.1787599999999
 42
0.239296
 10
357.1942729999999
 20
438.025258
 42
0.068231
 10
356.856002
 20
437.946071
 42
-0.0722
 10
356.428291
 20
437.8495049999999
 42
-0.203461
 10
354.160291
 20
438.61002
 42
-0.203461
 10
353.1319439999999
 20
440.7698139999999
 42
-0.0722
 10
353.176252
 20
441.206046
 42
0.068231
 10
353.214087
 20
441.551395
 42
0.239296
 10
352.1153459999999
 20
443.577598
 42
0.239296
 10
349.8311939999999
 20
443.886438
 42
0.068231
 10
349.521703
 20
443.728598
 42
-0.0722
 10
349.1295309999999
 20
443.53248
 42
-0.203461
 10
346.7454319999999
 20
443.728128
 42
-0.203461
 10
345.230094
 20
445.579063
 42
-0.0722
 10
345.168717
 20
446.013222
 42
0.068231
 10
345.1228049999999
 20
446.357591
 42
0.239296
 10
343.571089
 20
448.06197
 42
0.239296
 10
341.2794009999999
 20
447.8152019999999
 42
0.068231
 10
341.0166759999999
 20
447.587883
 42
-0.0722
 10
340.682835
 20
447.303611
 42
-0.203461
 10
338.3211909999999
 20
446.923021
 42
-0.203461
 10
336.4069289999999
 20
448.3575269999999
 42
-0.0722
 10
336.243434
 20
448.7643809999999
 42
0.068231
 10
336.116444
 20
449.0877559999999
 42
0.239296
 10
334.2019329999999
 20
450.371259
 42
0.239296
 10
332.0358919999999
 20
449.583225
 42
0.068231
 10
331.8352029999999
 20
449.299637
 42
-0.0722
 10
331.5790929999999
 20
448.943732
 42
-0.203461
 10
329.377156
 20
448.009023
 42
-0.203461
 10
327.1752189999999
 20
448.943732
 42
-0.0722
 10
326.919108
 20
449.299637
 42
0.068231
 10
326.718419
 20
449.583225
 42
0.239296
 10
324.5523779999999
 20
450.371259
 42
0.239296
 10
322.637868
 20
449.0877559999999
 42
0.068231
 10
322.5108769999999
 20
448.7643809999999
 42
-0.0722
 10
322.3473829999999
 20
448.3575269999999
 42
-0.203461
 10
320.4331209999999
 20
446.923021
 42
-0.203461
 10
318.071477
 20
447.303611
 42
-0.0722
 10
317.737635
 20
447.587883
 42
0.068231
 10
317.4749109999999
 20
447.8152019999999
 42
0.239296
 10
315.183222
 20
448.06197
 42
0.239296
 10
313.631506
 20
446.357591
 42
0.068231
 10
313.585595
 20
446.013222
 42
-0.0722
 10
313.524218
 20
445.579063
 42
-0.203461
 10
312.0088799999999
 20
443.728128
 42
-0.203461
 10
309.6247809999999
 20
443.53248
 42
-0.0722
 10
309.2326089999999
 20
443.728598
 42
0.068231
 10
308.923118
 20
443.886438
 42
0.239296
 10
306.638966
 20
443.577598
 42
0.239296
 10
305.540225
 20
441.551395
 42
0.068231
 10
305.5780599999999
 20
441.206046
 42
-0.0722
 10
305.622367
 20
440.7698139999999
 42
-0.203461
 10
304.5940209999999
 20
438.61002
 42
-0.203461
 10
302.32602
 20
437.8495049999999
 42
-0.0722
 10
301.89831
 20
437.946071
 42
0.068231
 10
301.560039
 20
438.025258
 42
0.239296
 10
299.416171
 20
437.1787599999999
 42
0.239296
 10
298.8342589999999
 20
434.9484889999999
 42
0.068231
 10
298.953642
 20
434.622229
 42
-0.0722
 10
299.1010589999999
 20
434.2092769999999
 42
-0.203461
 10
298.6194669999999
 20
431.8661429999999
 42
-0.203461
 10
296.599373
 20
430.584959
 42
-0.0722
 10
296.1609819999999
 20
430.576362
 42
0.068231
 10
295.8135899999999
 20
430.572294
 42
0.239296
 10
293.934599
 20
429.237332
 42
0.239296
 10
293.903335
 20
426.9326079999999
 42
0.068231
 10
294.097329
 20
426.6443989999999
 42
-0.0722
 10
294.339288
 20
426.278726
 42
-0.203461
 10
294.4324379999999
 20
423.8884259999999
 42
-0.203461
 10
292.777652
 20
422.161032
 42
-0.0722
 10
292.354057
 20
422.0477699999999
 42
0.068231
 10
292.017733
 20
421.9606839999999
 42
0.239296
 10
290.51282
 20
420.2148419999999
 42
0.239296
 10
291.034021
 20
417.969607
 42
0.068231
 10
291.29135
 20
417.7361979999999
 42
-0.0722
 10
291.6137899999999
 20
417.4390559999999
 42
-0.203461
 10
292.27627
 20
415.140506
 42
-0.203461
 10
291.082961
 20
413.067291
 42
-0.0722
 10
290.698781
 20
412.8559469999999
 42
0.068231
 10
290.39307
 20
412.690904
 42
0.239296
 10
289.3496939999999
 20
410.6356429999999
 42
0.239296
 10
290.39307
 20
408.5803819999999
 42
0.068231
 10
290.698781
 20
408.4153389999999
 42
-0.0722
 10
291.082961
 20
408.203996
 42
-0.203461
 10
292.27627
 20
406.1307799999999
 42
-0.203461
 10
291.6137899999999
 20
403.8322309999999
 42
-0.0722
 10
291.29135
 20
403.535088
 42
0.068231
 10
291.034021
 20
403.3016799999999
 42
0.239296
 10
290.51282
 20
401.056445
 42
0.239296
 10
292.017733
 20
399.310602
 42
0.068231
 10
292.354057
 20
399.223516
 42
-0.0722
 10
292.777652
 20
399.1102539999999
 42
-0.203461
 10
294.4324379999999
 20
397.38286
 42
-0.203461
 10
294.339288
 20
394.99256
 42
-0.0722
 10
294.097329
 20
394.626887
 42
0.068231
 10
293.903335
 20
394.3386779999999
 42
0.239296
 10
293.934599
 20
392.033954
 42
0.239296
 10
295.8135899999999
 20
390.698992
 42
0.068231
 10
296.1609819999999
 20
390.694924
 42
-0.0722
 10
296.599373
 20
390.686327
 42
-0.203461
 10
298.6194669999999
 20
389.405143
 42
-0.203461
 10
299.1010589999999
 20
387.062009
 42
-0.0722
 10
298.953642
 20
386.6490569999999
 42
0.068231
 10
298.8342589999999
 20
386.3227979999999
 42
0.239296
 10
299.416171
 20
384.0925259999999
 42
0.239296
 10
301.560039
 20
383.2460279999999
 42
0.068231
 10
301.89831
 20
383.325215
 42
-0.0722
 10
302.32602
 20
383.421781
 42
-0.203461
 10
304.5940209999999
 20
382.661266
 42
-0.203461
 10
305.622367
 20
380.501472
 42
-0.0722
 10
305.5780599999999
 20
380.065241
 42
0.068231
 10
305.540225
 20
379.719891
 42
0.239296
 10
306.638966
 20
377.693688
 42
0.239296
 10
308.923118
 20
377.384849
 42
0.068231
 10
309.2326089999999
 20
377.5426879999999
 42
-0.0722
 10
309.6247809999999
 20
377.738806
 42
-0.203461
 10
312.0088799999999
 20
377.543159
 42
-0.203461
 10
313.524218
 20
375.692223
 42
-0.0722
 10
313.585595
 20
375.258065
 42
0.068231
 10
313.631506
 20
374.913696
 42
0.239296
 10
315.183222
 20
373.209316
 42
0.239296
 10
317.4749109999999
 20
373.456085
 42
0.068231
 10
317.737635
 20
373.683403
 42
-0.0722
 10
318.071477
 20
373.967675
 42
-0.203461
 10
320.4331209999999
 20
374.348266
 42
-0.203461
 10
322.3473829999999
 20
372.9137589999999
 42
-0.0722
 10
322.5108769999999
 20
372.5069049999999
 42
0.068231
 10
322.637868
 20
372.1835299999999
 42
0.239296
 10
324.5523779999999
 20
370.900027
 42
0.239296
 10
326.718419
 20
371.688061
 42
0.068231
 10
326.919108
 20
371.971649
 42
-0.0722
 10
327.1752189999999
 20
372.327554
 42
-0.203461
 10
329.377156
 20
373.2622629999999
 42
-0.203461
 10
331.5790929999999
 20
372.327554
 42
-0.0722
 10
331.8352029999999
 20
371.971649
 42
0.068231
 10
332.0358919999999
 20
371.688061
 42
0.239296
 10
334.2019329999999
 20
370.900027
 42
0.239296
 10
336.116444
 20
372.1835299999999
 42
0.068231
 10
336.243434
 20
372.5069049999999
 42
-0.0722
 10
336.4069289999999
 20
372.9137589999999
 42
-0.203461
 10
338.3211909999999
 20
374.348266
 42
-0.203461
 10
340.682835
 20
373.967675
 42
-0.0722
 10
341.0166759999999
 20
373.683403
 42
0.068231
 10
341.2794009999999
 20
373.456085
 42
0.239296
 10
343.571089
 20
373.209316
 42
0.239296
 10
345.1228049999999
 20
374.913696
 42
0.068231
 10
345.168717
 20
375.258065
 42
-0.0722
 10
345.230094
 20
375.692223
  0
LWPOLYLINE
  5
214
330
1F
100
AcDbEntity
  8
External Cut
100
AcDbPolyline
 90
        5
 70
   128
 43
0.0
 10
381.4052769999999
 20
453.9465329999999
 42
-0.4142140000000001
 10
370.056912
 20
442.5981679999999
 42
-0.4142140000000001
 10
358.708548
 20
453.9465329999999
 42
-0.4142140000000001
 10
370.056912
 20
465.2948969999999
 42
-0.4142140000000001
 10
381.4052769999999
 20
453.9465329999999
  0
LWPOLYLINE
  5
215
330
1F
100
AcDbEntity
  8
External Cut
100
AcDbPolyline
 90
      209
 70
   128
 43
0.0
 10
256.6721849999999
 20
375.692223
 42
-0.203461
 10
258.187523
 20
377.543159
 42
-0.203461
 10
260.571622
 20
377.738806
 42
-0.0722
 10
260.963794
 20
377.5426879999999
 42
0.068231
 10
261.2732849999999
 20
377.384849
 42
0.239296
 10
263.557437
 20
377.693688
 42
0.239296
 10
264.6561779999999
 20
379.719891
 42
0.068231
 10
264.618343
 20
380.065241
 42
-0.0722
 10
264.574035
 20
380.501472
 42
-0.203461
 10
265.6023819999999
 20
382.661266
 42
-0.203461
 10
267.8703829999999
 20
383.421781
 42
-0.0722
 10
268.2980929999999
 20
383.325215
 42
0.068231
 10
268.636364
 20
383.2460279999999
 42
0.239296
 10
270.7802319999999
 20
384.0925259999999
 42
0.239296
 10
271.362144
 20
386.3227979999999
 42
0.068231
 10
271.24276
 20
386.6490569999999
 42
-0.0722
 10
271.0953429999999
 20
387.062009
 42
-0.203461
 10
271.5769359999999
 20
389.405143
 42
-0.203461
 10
273.597029
 20
390.686327
 42
-0.0722
 10
274.035421
 20
390.694924
 42
0.068231
 10
274.382813
 20
390.698992
 42
0.239296
 10
276.2618039999999
 20
392.033954
 42
0.239296
 10
276.293068
 20
394.3386779999999
 42
0.068231
 10
276.099074
 20
394.626887
 42
-0.0722
 10
275.8571149999999
 20
394.99256
 42
-0.203461
 10
275.7639639999999
 20
397.38286
 42
-0.203461
 10
277.41875
 20
399.1102539999999
 42
-0.0722
 10
277.842345
 20
399.223516
 42
0.068231
 10
278.17867
 20
399.310602
 42
0.239296
 10
279.683583
 20
401.056445
 42
0.239296
 10
279.1623819999999
 20
403.3016799999999
 42
0.068231
 10
278.9050519999999
 20
403.535088
 42
-0.0722
 10
278.5826129999999
 20
403.8322309999999
 42
-0.203461
 10
277.920133
 20
406.1307799999999
 42
-0.203461
 10
279.113441
 20
408.203996
 42
-0.0722
 10
279.497622
 20
408.4153389999999
 42
0.068231
 10
279.8033319999999
 20
408.5803819999999
 42
0.239296
 10
280.846708
 20
410.6356429999999
 42
0.239296
 10
279.8033319999999
 20
412.690904
 42
0.068231
 10
279.497622
 20
412.8559469999999
 42
-0.0722
 10
279.113441
 20
413.067291
 42
-0.203461
 10
277.920133
 20
415.140506
 42
-0.203461
 10
278.5826129999999
 20
417.4390559999999
 42
-0.0722
 10
278.9050519999999
 20
417.7361979999999
 42
0.068231
 10
279.1623819999999
 20
417.969607
 42
0.239296
 10
279.683583
 20
420.2148419999999
 42
0.239296
 10
278.17867
 20
421.9606839999999
 42
0.068231
 10
277.842345
 20
422.0477699999999
 42
-0.0722
 10
277.41875
 20
422.161032
 42
-0.203461
 10
275.7639639999999
 20
423.8884259999999
 42
-0.203461
 10
275.8571149999999
 20
426.278726
 42
-0.0722
 10
276.099074
 20
426.6443989999999
 42
0.068231
 10
276.293068
 20
426.9326079999999
 42
0.239296
 10
276.2618039999999
 20
429.237332
 42
0.239296
 10
274.382813
 20
430.572294
 42
0.068231
 10
274.035421
 20
430.576362
 42
-0.0722
 10
273.597029
 20
430.584959
 42
-0.203461
 10
271.5769359999999
 20
431.8661429999999
 42
-0.203461
 10
271.0953429999999
 20
434.2092769999999
 42
-0.0722
 10
271.24276
 20
434.622229
 42
0.068231
 10
271.362144
 20
434.9484889999999
 42
0.239296
 10
270.7802319999999
 20
437.1787599999999
 42
0.239296
 10
268.636364
 20
438.025258
 42
0.068231
 10
268.2980929999999
 20
437.946071
 42
-0.0722
 10
267.8703829999999
 20
437.8495049999999
 42
-0.203461
 10
265.6023819999999
 20
438.61002
 42
-0.203461
 10
264.574035
 20
440.7698139999999
 42
-0.0722
 10
264.618343
 20
441.206046
 42
0.068231
 10
264.6561779999999
 20
441.551395
 42
0.239296
 10
263.557437
 20
443.577598
 42
0.239296
 10
261.2732849999999
 20
443.886438
 42
0.068231
 10
260.963794
 20
443.728598
 42
-0.0722
 10
260.571622
 20
443.53248
 42
-0.203461
 10
258.187523
 20
443.728128
 42
-0.203461
 10
256.6721849999999
 20
445.579063
 42
-0.0722
 10
256.610808
 20
446.013222
 42
0.068231
 10
256.5648959999999
 20
446.357591
 42
0.239296
 10
255.0131799999999
 20
448.06197
 42
0.239296
 10
252.721492
 20
447.8152019999999
 42
0.068231
 10
252.458768
 20
447.587883
 42
-0.0722
 10
252.1249259999999
 20
447.303611
 42
-0.203461
 10
249.7632819999999
 20
446.923021
 42
-0.203461
 10
247.84902
 20
448.3575269999999
 42
-0.0722
 10
247.685525
 20
448.7643809999999
 42
0.068231
 10
247.558535
 20
449.0877559999999
 42
0.239296
 10
245.644024
 20
450.371259
 42
0.239296
 10
243.477983
 20
449.583225
 42
0.068231
 10
243.2772939999999
 20
449.299637
 42
-0.0722
 10
243.0211839999999
 20
448.943732
 42
-0.203461
 10
240.819247
 20
448.009023
 42
-0.203461
 10
238.61731
 20
448.943732
 42
-0.0722
 10
238.361199
 20
449.299637
 42
0.068231
 10
238.16051
 20
449.583225
 42
0.239296
 10
235.99447
 20
450.371259
 42
0.239296
 10
234.0799589999999
 20
449.0877559999999
 42
0.068231
 10
233.9529689999999
 20
448.7643809999999
 42
-0.0722
 10
233.789474
 20
448.3575269999999
 42
-0.203461
 10
231.875212
 20
446.923021
 42
-0.203461
 10
229.513568
 20
447.303611
 42
-0.0722
 10
229.179726
 20
447.587883
 42
0.068231
 10
228.9170019999999
 20
447.8152019999999
 42
0.239296
 10
226.6253129999999
 20
448.06197
 42
0.239296
 10
225.073597
 20
446.357591
 42
0.068231
 10
225.027686
 20
446.013222
 42
-0.0722
 10
224.9663089999999
 20
445.579063
 42
-0.203461
 10
223.450971
 20
443.728128
 42
-0.203461
 10
221.066872
 20
443.53248
 42
-0.0722
 10
220.6747
 20
443.728598
 42
0.068231
 10
220.3652089999999
 20
443.886438
 42
0.239296
 10
218.0810569999999
 20
443.577598
 42
0.239296
 10
216.982316
 20
441.551395
 42
0.068231
 10
217.0201509999999
 20
441.206046
 42
-0.0722
 10
217.064458
 20
440.7698139999999
 42
-0.203461
 10
216.036112
 20
438.61002
 42
-0.203461
 10
213.7681109999999
 20
437.8495049999999
 42
-0.0722
 10
213.340401
 20
437.946071
 42
0.068231
 10
213.00213
 20
438.025258
 42
0.239296
 10
210.858262
 20
437.1787599999999
 42
0.239296
 10
210.27635
 20
434.9484889999999
 42
0.068231
 10
210.395733
 20
434.622229
 42
-0.0722
 10
210.5431499999999
 20
434.2092769999999
 42
-0.203461
 10
210.061558
 20
431.8661429999999
 42
-0.203461
 10
208.0414649999999
 20
430.584959
 42
-0.0722
 10
207.6030729999999
 20
430.576362
 42
0.068231
 10
207.255681
 20
430.572294
 42
0.239296
 10
205.3766899999999
 20
429.237332
 42
0.239296
 10
205.345426
 20
426.9326079999999
 42
0.068231
 10
205.53942
 20
426.6443989999999
 42
-0.0722
 10
205.7813789999999
 20
426.278726
 42
-0.203461
 10
205.874529
 20
423.8884259999999
 42
-0.203461
 10
204.2197429999999
 20
422.161032
 42
-0.0722
 10
203.7961479999999
 20
422.0477699999999
 42
0.068231
 10
203.459824
 20
421.9606839999999
 42
0.239296
 10
201.954911
 20
420.2148419999999
 42
0.239296
 10
202.4761119999999
 20
417.969607
 42
0.068231
 10
202.7334409999999
 20
417.7361979999999
 42
-0.0722
 10
203.055881
 20
417.4390559999999
 42
-0.203461
 10
203.718361
 20
415.140506
 42
-0.203461
 10
202.5250519999999
 20
413.067291
 42
-0.0722
 10
202.140872
 20
412.8559469999999
 42
0.068231
 10
201.8351609999999
 20
412.690904
 42
0.239296
 10
200.791785
 20
410.6356429999999
 42
0.239296
 10
201.8351609999999
 20
408.5803819999999
 42
0.068231
 10
202.140872
 20
408.4153389999999
 42
-0.0722
 10
202.5250519999999
 20
408.203996
 42
-0.203461
 10
203.718361
 20
406.1307799999999
 42
-0.203461
 10
203.055881
 20
403.8322309999999
 42
-0.0722
 10
202.7334409999999
 20
403.535088
 42
0.068231
 10
202.4761119999999
 20
403.3016799999999
 42
0.239296
 10
201.954911
 20
401.056445
 42
0.239296
 10
203.459824
 20
399.310602
 42
0.068231
 10
203.7961479999999
 20
399.223516
 42
-0.0722
 10
204.2197429999999
 20
399.1102539999999
 42
-0.203461
 10
205.874529
 20
397.38286
 42
-0.203461
 10
205.7813789999999
 20
394.99256
 42
-0.0722
 10
205.53942
 20
394.626887
 42
0.068231
 10
205.345426
 20
394.3386779999999
 42
0.239296
 10
205.3766899999999
 20
392.033954
 42
0.239296
 10
207.255681
 20
390.698992
 42
0.068231
 10
207.6030729999999
 20
390.694924
 42
-0.0722
 10
208.0414649999999
 20
390.686327
 42
-0.203461
 10
210.061558
 20
389.405143
 42
-0.203461
 10
210.5431499999999
 20
387.062009
 42
-0.0722
 10
210.395733
 20
386.6490569999999
 42
0.068231
 10
210.27635
 20
386.3227979999999
 42
0.239296
 10
210.858262
 20
384.0925259999999
 42
0.239296
 10
213.00213
 20
383.2460279999999
 42
0.068231
 10
213.340401
 20
383.325215
 42
-0.0722
 10
213.7681109999999
 20
383.421781
 42
-0.203461
 10
216.036112
 20
382.661266
 42
-0.203461
 10
217.064458
 20
380.501472
 42
-0.0722
 10
217.0201509999999
 20
380.065241
 42
0.068231
 10
216.982316
 20
379.719891
 42
0.239296
 10
218.0810569999999
 20
377.693688
 42
0.239296
 10
220.3652089999999
 20
377.384849
 42
0.068231
 10
220.6747
 20
377.5426879999999
 42
-0.0722
 10
221.066872
 20
377.738806
 42
-0.203461
 10
223.450971
 20
377.543159
 42
-0.203461
 10
224.9663089999999
 20
375.692223
 42
-0.0722
 10
225.027686
 20
375.258065
 42
0.068231
 10
225.073597
 20
374.913696
 42
0.239296
 10
226.6253129999999
 20
373.209316
 42
0.239296
 10
228.9170019999999
 20
373.456085
 42
0.068231
 10
229.179726
 20
373.683403
 42
-0.0722
 10
229.513568
 20
373.967675
 42
-0.203461
 10
231.875212
 20
374.348266
 42
-0.203461
 10
233.789474
 20
372.9137589999999
 42
-0.0722
 10
233.9529689999999
 20
372.5069049999999
 42
0.068231
 10
234.0799589999999
 20
372.1835299999999
 42
0.239296
 10
235.99447
 20
370.900027
 42
0.239296
 10
238.16051
 20
371.688061
 42
0.068231
 10
238.361199
 20
371.971649
 42
-0.0722
 10
238.61731
 20
372.327554
 42
-0.203461
 10
240.819247
 20
373.2622629999999
 42
-0.203461
 10
243.0211839999999
 20
372.327554
 42
-0.0722
 10
243.2772939999999
 20
371.971649
 42
0.068231
 10
243.477983
 20
371.688061
 42
0.239296
 10
245.644024
 20
370.900027
 42
0.239296
 10
247.558535
 20
372.1835299999999
 42
0.068231
 10
247.685525
 20
372.5069049999999
 42
-0.0722
 10
247.84902
 20
372.9137589999999
 42
-0.203461
 10
249.7632819999999
 20
374.348266
 42
-0.203461
 10
252.1249259999999
 20
373.967675
 42
-0.0722
 10
252.458768
 20
373.683403
 42
0.068231
 10
252.721492
 20
373.456085
 42
0.239296
 10
255.0131799999999
 20
373.209316
 42
0.239296
 10
256.5648959999999
 20
374.913696
 42
0.068231
 10
256.610808
 20
375.258065
 42
-0.0722
 10
256.6721849999999
 20
375.692223
  0
LWPOLYLINE
  5
216
330
1F
100
AcDbEntity
  8
External Cut
100
AcDbPolyline
 90
        5
 70
   128
 43
0.0
 10
292.847368
 20
453.9465329999999
 42
-0.4142140000000001
 10
281.4990029999999
 20
442.5981679999999
 42
-0.4142140000000001
 10
270.150639
 20
453.9465329999999
 42
-0.4142140000000001
 10
281.4990029999999
 20
465.2948969999999
 42
-0.4142140000000001
 10
292.847368
 20
453.9465329999999
  0
LWPOLYLINE
  5
217
330
1F
100
AcDbEntity
  8
External Cut
100
AcDbPolyline
 90
      209
 70
   128
 43
0.0
 10
163.2657969999999
 20
375.692223
 42
-0.203461
 10
164.781135
 20
377.543159
 42
-0.203461
 10
167.165234
 20
377.738806
 42
-0.0722
 10
167.557406
 20
377.5426879999999
 42
0.068231
 10
167.8668969999999
 20
377.384849
 42
0.239296
 10
170.1510489999999
 20
377.693688
 42
0.239296
 10
171.2497899999999
 20
379.719891
 42
0.068231
 10
171.211955
 20
380.065241
 42
-0.0722
 10
171.167647
 20
380.501472
 42
-0.203461
 10
172.1959939999999
 20
382.661266
 42
-0.203461
 10
174.4639939999999
 20
383.421781
 42
-0.0722
 10
174.891705
 20
383.325215
 42
0.068231
 10
175.2299759999999
 20
383.2460279999999
 42
0.239296
 10
177.3738439999999
 20
384.0925259999999
 42
0.239296
 10
177.955756
 20
386.3227979999999
 42
0.068231
 10
177.8363719999999
 20
386.6490569999999
 42
-0.0722
 10
177.6889549999999
 20
387.062009
 42
-0.203461
 10
178.170548
 20
389.405143
 42
-0.203461
 10
180.1906409999999
 20
390.686327
 42
-0.0722
 10
180.629033
 20
390.694924
 42
0.068231
 10
180.976425
 20
390.698992
 42
0.239296
 10
182.8554159999999
 20
392.033954
 42
0.239296
 10
182.886679
 20
394.3386779999999
 42
0.068231
 10
182.692686
 20
394.626887
 42
-0.0722
 10
182.4507269999999
 20
394.99256
 42
-0.203461
 10
182.3575759999999
 20
397.38286
 42
-0.203461
 10
184.012362
 20
399.1102539999999
 42
-0.0722
 10
184.4359569999999
 20
399.223516
 42
0.068231
 10
184.772281
 20
399.310602
 42
0.239296
 10
186.277195
 20
401.056445
 42
0.239296
 10
185.7559939999999
 20
403.3016799999999
 42
0.068231
 10
185.4986639999999
 20
403.535088
 42
-0.0722
 10
185.1762249999999
 20
403.8322309999999
 42
-0.203461
 10
184.513745
 20
406.1307799999999
 42
-0.203461
 10
185.707053
 20
408.203996
 42
-0.0722
 10
186.091234
 20
408.4153389999999
 42
0.068231
 10
186.3969439999999
 20
408.5803819999999
 42
0.239296
 10
187.4403199999999
 20
410.6356429999999
 42
0.239296
 10
186.3969439999999
 20
412.690904
 42
0.068231
 10
186.091234
 20
412.8559469999999
 42
-0.0722
 10
185.707053
 20
413.067291
 42
-0.203461
 10
184.513745
 20
415.140506
 42
-0.203461
 10
185.1762249999999
 20
417.4390559999999
 42
-0.0722
 10
185.4986639999999
 20
417.7361979999999
 42
0.068231
 10
185.7559939999999
 20
417.969607
 42
0.239296
 10
186.277195
 20
420.2148419999999
 42
0.239296
 10
184.772281
 20
421.9606839999999
 42
0.068231
 10
184.4359569999999
 20
422.0477699999999
 42
-0.0722
 10
184.012362
 20
422.161032
 42
-0.203461
 10
182.3575759999999
 20
423.8884259999999
 42
-0.203461
 10
182.4507269999999
 20
426.278726
 42
-0.0722
 10
182.692686
 20
426.6443989999999
 42
0.068231
 10
182.886679
 20
426.9326079999999
 42
0.239296
 10
182.8554159999999
 20
429.237332
 42
0.239296
 10
180.976425
 20
430.572294
 42
0.068231
 10
180.629033
 20
430.576362
 42
-0.0722
 10
180.1906409999999
 20
430.584959
 42
-0.203461
 10
178.170548
 20
431.8661429999999
 42
-0.203461
 10
177.6889549999999
 20
434.2092769999999
 42
-0.0722
 10
177.8363719999999
 20
434.622229
 42
0.068231
 10
177.955756
 20
434.9484889999999
 42
0.239296
 10
177.3738439999999
 20
437.1787599999999
 42
0.239296
 10
175.2299759999999
 20
438.025258
 42
0.068231
 10
174.891705
 20
437.946071
 42
-0.0722
 10
174.4639939999999
 20
437.8495049999999
 42
-0.203461
 10
172.1959939999999
 20
438.61002
 42
-0.203461
 10
171.167647
 20
440.7698139999999
 42
-0.0722
 10
171.211955
 20
441.206046
 42
0.068231
 10
171.2497899999999
 20
441.551395
 42
0.239296
 10
170.1510489999999
 20
443.577598
 42
0.239296
 10
167.8668969999999
 20
443.886438
 42
0.068231
 10
167.557406
 20
443.728598
 42
-0.0722
 10
167.165234
 20
443.53248
 42
-0.203461
 10
164.781135
 20
443.728128
 42
-0.203461
 10
163.2657969999999
 20
445.579063
 42
-0.0722
 10
163.2044199999999
 20
446.013222
 42
0.068231
 10
163.158508
 20
446.357591
 42
0.239296
 10
161.6067919999999
 20
448.06197
 42
0.239296
 10
159.3151039999999
 20
447.8152019999999
 42
0.068231
 10
159.0523789999999
 20
447.587883
 42
-0.0722
 10
158.718538
 20
447.303611
 42
-0.203461
 10
156.3568939999999
 20
446.923021
 42
-0.203461
 10
154.442632
 20
448.3575269999999
 42
-0.0722
 10
154.279137
 20
448.7643809999999
 42
0.068231
 10
154.1521469999999
 20
449.0877559999999
 42
0.239296
 10
152.237636
 20
450.371259
 42
0.239296
 10
150.071595
 20
449.583225
 42
0.068231
 10
149.870906
 20
449.299637
 42
-0.0722
 10
149.6147959999999
 20
448.943732
 42
-0.203461
 10
147.412859
 20
448.009023
 42
-0.203461
 10
145.210922
 20
448.943732
 42
-0.0722
 10
144.954811
 20
449.299637
 42
0.068231
 10
144.7541219999999
 20
449.583225
 42
0.239296
 10
142.588081
 20
450.371259
 42
0.239296
 10
140.673571
 20
449.0877559999999
 42
0.068231
 10
140.5465799999999
 20
448.7643809999999
 42
-0.0722
 10
140.383086
 20
448.3575269999999
 42
-0.203461
 10
138.468824
 20
446.923021
 42
-0.203461
 10
136.1071799999999
 20
447.303611
 42
-0.0722
 10
135.7733379999999
 20
447.587883
 42
0.068231
 10
135.5106139999999
 20
447.8152019999999
 42
0.239296
 10
133.218925
 20
448.06197
 42
0.239296
 10
131.667209
 20
446.357591
 42
0.068231
 10
131.6212979999999
 20
446.013222
 42
-0.0722
 10
131.559921
 20
445.579063
 42
-0.203461
 10
130.044583
 20
443.728128
 42
-0.203461
 10
127.660484
 20
443.53248
 42
-0.0722
 10
127.268312
 20
443.728598
 42
0.068231
 10
126.9588209999999
 20
443.886438
 42
0.239296
 10
124.6746689999999
 20
443.577598
 42
0.239296
 10
123.575928
 20
441.551395
 42
0.068231
 10
123.6137629999999
 20
441.206046
 42
-0.0722
 10
123.6580699999999
 20
440.7698139999999
 42
-0.203461
 10
122.629724
 20
438.61002
 42
-0.203461
 10
120.361723
 20
437.8495049999999
 42
-0.0722
 10
119.9340129999999
 20
437.946071
 42
0.068231
 10
119.5957419999999
 20
438.025258
 42
0.239296
 10
117.451874
 20
437.1787599999999
 42
0.239296
 10
116.869962
 20
434.9484889999999
 42
0.068231
 10
116.989345
 20
434.622229
 42
-0.0722
 10
117.136762
 20
434.2092769999999
 42
-0.203461
 10
116.65517
 20
431.8661429999999
 42
-0.203461
 10
114.635076
 20
430.584959
 42
-0.0722
 10
114.1966849999999
 20
430.576362
 42
0.068231
 10
113.8492929999999
 20
430.572294
 42
0.239296
 10
111.9703019999999
 20
429.237332
 42
0.239296
 10
111.9390379999999
 20
426.9326079999999
 42
0.068231
 10
112.1330319999999
 20
426.6443989999999
 42
-0.0722
 10
112.3749909999999
 20
426.278726
 42
-0.203461
 10
112.4681409999999
 20
423.8884259999999
 42
-0.203461
 10
110.813355
 20
422.161032
 42
-0.0722
 10
110.38976
 20
422.0477699999999
 42
0.068231
 10
110.053436
 20
421.9606839999999
 42
0.239296
 10
108.5485229999999
 20
420.2148419999999
 42
0.239296
 10
109.0697239999999
 20
417.969607
 42
0.068231
 10
109.327053
 20
417.7361979999999
 42
-0.0722
 10
109.6494929999999
 20
417.4390559999999
 42
-0.203461
 10
110.3119729999999
 20
415.140506
 42
-0.203461
 10
109.1186639999999
 20
413.067291
 42
-0.0722
 10
108.734484
 20
412.8559469999999
 42
0.068231
 10
108.4287729999999
 20
412.690904
 42
0.239296
 10
107.385397
 20
410.6356429999999
 42
0.239296
 10
108.4287729999999
 20
408.5803819999999
 42
0.068231
 10
108.734484
 20
408.4153389999999
 42
-0.0722
 10
109.1186639999999
 20
408.203996
 42
-0.203461
 10
110.3119729999999
 20
406.1307799999999
 42
-0.203461
 10
109.6494929999999
 20
403.8322309999999
 42
-0.0722
 10
109.327053
 20
403.535088
 42
0.068231
 10
109.0697239999999
 20
403.3016799999999
 42
0.239296
 10
108.5485229999999
 20
401.056445
 42
0.239296
 10
110.053436
 20
399.310602
 42
0.068231
 10
110.38976
 20
399.223516
 42
-0.0722
 10
110.813355
 20
399.1102539999999
 42
-0.203461
 10
112.4681409999999
 20
397.38286
 42
-0.203461
 10
112.3749909999999
 20
394.99256
 42
-0.0722
 10
112.1330319999999
 20
394.626887
 42
0.068231
 10
111.9390379999999
 20
394.3386779999999
 42
0.239296
 10
111.9703019999999
 20
392.033954
 42
0.239296
 10
113.8492929999999
 20
390.698992
 42
0.068231
 10
114.1966849999999
 20
390.694924
 42
-0.0722
 10
114.635076
 20
390.686327
 42
-0.203461
 10
116.65517
 20
389.405143
 42
-0.203461
 10
117.136762
 20
387.062009
 42
-0.0722
 10
116.989345
 20
386.6490569999999
 42
0.068231
 10
116.869962
 20
386.3227979999999
 42
0.239296
 10
117.451874
 20
384.0925259999999
 42
0.239296
 10
119.5957419999999
 20
383.2460279999999
 42
0.068231
 10
119.9340129999999
 20
383.325215
 42
-0.0722
 10
120.361723
 20
383.421781
 42
-0.203461
 10
122.629724
 20
382.661266
 42
-0.203461
 10
123.6580699999999
 20
380.501472
 42
-0.0722
 10
123.6137629999999
 20
380.065241
 42
0.068231
 10
123.575928
 20
379.719891
 42
0.239296
 10
124.6746689999999
 20
377.693688
 42
0.239296
 10
126.9588209999999
 20
377.384849
 42
0.068231
 10
127.268312
 20
377.5426879999999
 42
-0.0722
 10
127.660484
 20
377.738806
 42
-0.203461
 10
130.044583
 20
377.543159
 42
-0.203461
 10
131.559921
 20
375.692223
 42
-0.0722
 10
131.6212979999999
 20
375.258065
 42
0.068231
 10
131.667209
 20
374.913696
 42
0.239296
 10
133.218925
 20
373.209316
 42
0.239296
 10
135.5106139999999
 20
373.456085
 42
0.068231
 10
135.7733379999999
 20
373.683403
 42
-0.0722
 10
136.1071799999999
 20
373.967675
 42
-0.203461
 10
138.468824
 20
374.348266
 42
-0.203461
 10
140.383086
 20
372.9137589999999
 42
-0.0722
 10
140.5465799999999
 20
372.5069049999999
 42
0.068231
 10
140.673571
 20
372.1835299999999
 42
0.239296
 10
142.588081
 20
370.900027
 42
0.239296
 10
144.7541219999999
 20
371.688061
 42
0.068231
 10
144.954811
 20
371.971649
 42
-0.0722
 10
145.210922
 20
372.327554
 42
-0.203461
 10
147.412859
 20
373.2622629999999
 42
-0.203461
 10
149.6147959999999
 20
372.327554
 42
-0.0722
 10
149.870906
 20
371.971649
 42
0.068231
 10
150.071595
 20
371.688061
 42
0.239296
 10
152.237636
 20
370.900027
 42
0.239296
 10
154.1521469999999
 20
372.1835299999999
 42
0.068231
 10
154.279137
 20
372.5069049999999
 42
-0.0722
 10
154.442632
 20
372.9137589999999
 42
-0.203461
 10
156.3568939999999
 20
374.348266
 42
-0.203461
 10
158.718538
 20
373.967675
 42
-0.0722
 10
159.0523789999999
 20
373.683403
 42
0.068231
 10
159.3151039999999
 20
373.456085
 42
0.239296
 10
161.6067919999999
 20
373.209316
 42
0.239296
 10
163.158508
 20
374.913696
 42
0.068231
 10
163.2044199999999
 20
375.258065
 42
-0.0722
 10
163.2657969999999
 20
375.692223
  0
LWPOLYLINE
  5
218
330
1F
100
AcDbEntity
  8
External Cut
100
AcDbPolyline
 90
        5
 70
   128
 43
0.0
 10
199.4409799999999
 20
453.9465329999999
 42
-0.4142140000000001
 10
188.092615
 20
442.5981679999999
 42
-0.4142140000000001
 10
176.7442509999999
 20
453.9465329999999
 42
-0.4142140000000001
 10
188.092615
 20
465.2948969999999
 42
-0.4142140000000001
 10
199.4409799999999
 20
453.9465329999999
  0
LWPOLYLINE
  5
219
330
1F
100
AcDbEntity
  8
External Cut
100
AcDbPolyline
 90
        5
 70
   128
 43
0.0
 10
276.407439
 20
502.922133
 42
-0.4142140000000001
 10
235.9864359999999
 20
462.5011309999999
 42
-0.4142140000000001
 10
195.565434
 20
502.922133
 42
-0.4142140000000001
 10
235.9864359999999
 20
543.3431360000001
 42
-0.4142140000000001
 10
276.407439
 20
502.922133
  0
LWPOLYLINE
  5
21A
330
1F
100
AcDbEntity
  8
External Cut
100
AcDbPolyline
 90
        5
 70
   128
 43
0.0
 10
364.0373149999999
 20
502.922133
 42
-0.4142140000000001
 10
323.616312
 20
462.5011309999999
 42
-0.4142140000000001
 10
283.195309
 20
502.922133
 42
-0.4142140000000001
 10
323.616312
 20
543.3431360000001
 42
-0.4142140000000001
 10
364.0373149999999
 20
502.922133
  0
LWPOLYLINE
  5
21B
330
1F
100
AcDbEntity
  8
External Cut
100
AcDbPolyline
 90
        5
 70
   128
 43
0.0
 10
451.66719
 20
502.922133
 42
-0.4142140000000001
 10
411.2461879999999
 20
462.5011309999999
 42
-0.4142140000000001
 10
370.825185
 20
502.922133
 42
-0.4142140000000001
 10
411.2461879999999
 20
543.3431360000001
 42
-0.4142140000000001
 10
451.66719
 20
502.922133
  0
LWPOLYLINE
  5
21D
330
1F
100
AcDbEntity
  8
External Cut
100
AcDbPolyline
 90
       16
 70
   128
 43
0.0
 10
278.8951949999999
 20
588.3127349999999
 10
254.086049
 20
597.40169
 42
0.396409
 10
246.2102189999999
 20
608.791098
 10
246.354716
 20
603.7770599999999
 42
-0.4142140000000001
 10
248.822852
 20
601.447194
 42
-0.4142140000000001
 10
246.492987
 20
598.979057
 10
241.694984
 20
598.8407869999999
 42
-1.0
 10
241.5567139999999
 20
603.638789
 10
241.412217
 20
608.652828
 42
0.396409
 10
234.2053629999999
 20
596.82876
 10
209.9608139999999
 20
586.3261579999999
 42
-0.063208
 10
207.899417
 20
595.2523589999999
 10
196.3372639999999
 20
594.08397
 42
0.9305659999999999
 10
292.049371
 20
596.8422389999999
 10
280.4391199999999
 20
597.342836
 42
-0.063208
 10
278.8951949999999
 20
588.3127349999999
  0
LWPOLYLINE
  5
21E
330
1F
100
AcDbEntity
  8
External Cut
100
AcDbPolyline
 90
       16
 70
   128
 43
0.0
 10
313.8691059999999
 20
584.697767
 42
0.744898
 10
405.83406
 20
586.4658559999999
 10
394.6375109999999
 20
589.578061
 42
-0.063208
 10
391.0922429999999
 20
581.1307249999999
 10
368.9799119999999
 20
595.592662
 42
0.284687
 10
367.107089
 20
606.071252
 10
364.2770779999999
 20
601.929694
 42
-1.0
 10
361.569002
 20
597.96658
 10
357.605888
 20
600.6746559999998
 42
-1.0
 10
360.313964
 20
604.637769
 10
363.143975
 20
608.779328
 42
0.676762
 10
350.4855089999999
 20
594.93076
 10
329.463593
 20
578.9250779999999
 10
320.9377759999999
 20
586.441941
 42
0.263922
 10
319.961637
 20
586.6464419999999
 10
313.8691059999999
 20
584.697767
  0
LWPOLYLINE
  5
21F
330
1F
100
AcDbEntity
  8
External Cut
100
AcDbPolyline
 90
       52
 70
   128
 43
0.0
 10
523.172345
 20
596.506595
 10
511.586621
 20
597.411876
 42
-0.45294
 10
467.7927949999999
 20
564.6537819999999
 10
473.948366
 20
590.2338349999999
 42
0.9553119999999999
 10
477.596304
 20
610.090933
 10
477.658533
 20
605.075199
 42
-1.0
 10
477.7180809999999
 20
600.275574
 10
472.9184559999999
 20
600.2160259999999
 42
-0.4142140000000001
 10
470.48887
 20
602.5860650000001
 42
-0.4142140000000001
 10
472.8589089999999
 20
605.0156509999999
 10
472.7966799999999
 20
610.0313859999999
 42
0.349016
 10
465.216073
 20
599.9973230000001
 10
439.466026
 20
594.078042
 42
-0.030871
 10
438.9794019999999
 20
598.5395490000001
 10
427.371153
 20
597.994496
 42
0.304486
 10
459.238159
 20
555.0194320000001
 10
457.3796589999999
 20
547.2962619999999
 42
-0.237553
 10
456.204951
 20
545.9089610000001
 10
454.39364
 20
545.1394589999999
 10
453.0002
 20
544.448926
 10
451.7045549999999
 20
543.692437
 10
450.504128
 20
542.8599469999999
 10
449.3963429999999
 20
541.9414109999999
 10
448.3786239999999
 20
540.9267869999999
 10
447.4483919999999
 20
539.806029
 10
454.137053
 20
539.8646980000001
 10
454.179154
 20
535.064888
 10
467.315474
 20
535.180112
 10
467.273373
 20
539.979922
 10
472.166362
 20
540.0228400000001
 10
471.7385059999999
 20
540.904449
 10
471.280674
 20
541.734041
 10
470.8463469999999
 20
542.4164819999999
 10
470.433528
 20
542.9709389999999
 10
470.040224
 20
543.4165809999999
 10
469.6644389999999
 20
543.7725759999999
 10
469.304178
 20
544.058093
 10
468.957448
 20
544.2922999999999
 10
468.6225429999999
 20
544.491775
 10
468.2989179999999
 20
544.6627379999999
 10
467.986316
 20
544.808818
 10
467.684482
 20
544.9336429999999
 10
467.3931599999999
 20
545.040844
 10
467.112095
 20
545.1340489999999
 10
466.8410309999999
 20
545.216887
 10
466.579711
 20
545.292988
 10
466.3283439999999
 20
545.365899
 10
466.088992
 20
545.43884
 10
465.137732
 20
545.760887
 42
-0.38801
 10
463.820865
 20
548.1480539999999
 10
465.073132
 20
553.3519679999999
 42
0.454969
 10
523.172345
 20
596.506595
  0
LWPOLYLINE
  5
232
330
1F
100
AcDbEntity
  8
Pocket Cut 1.1mm
100
AcDbPolyline
 90
        5
 70
   128
 43
0.0
 10
541.592813
 20
595.764837
 42
0.9191649999999999
 10
634.2206629999999
 20
597.2034530000001
 10
628.970317
 20
597.449977
 42
-0.9166120000000001
 10
546.832971
 20
596.174291
 10
541.592813
 20
595.764837
  0
LWPOLYLINE
  5
233
330
1F
100
AcDbEntity
  8
Pocket Cut 1.1mm
100
AcDbPolyline
 90
        5
 70
   128
 43
0.0
 10
747.533149
 20
584.347157
 10
742.5268599999999
 20
585.948401
 42
-0.7260130000000001
 10
664.136011
 20
587.4555190000001
 10
659.0718749999999
 20
586.0478849999999
 42
0.7281310000000002
 10
747.533149
 20
584.347157
  0
LWPOLYLINE
  5
234
330
1F
100
AcDbEntity
  8
Pocket Cut 1.1mm
100
AcDbPolyline
 90
        5
 70
   128
 43
0.0
 10
770.026687
 20
595.8984199999999
 10
775.2779389999999
 20
596.1248379999999
 42
0.907953
 10
857.319775
 20
593.760524
 10
862.5492730000001
 20
593.232069
 42
-0.9104839999999999
 10
770.026687
 20
595.8984199999999
  0
LWPOLYLINE
  5
241
330
1F
100
AcDbEntity
  8
Pocket Cut 1.1mm
100
AcDbPolyline
 90
        5
 70
   128
 43
0.0
 10
447.092846
 20
411.0337239999999
 42
-0.4142140000000001
 10
420.364458
 20
384.305336
 42
-0.4142140000000001
 10
393.63607
 20
411.0337239999999
 42
-0.4142140000000001
 10
420.364458
 20
437.7621119999999
 42
-0.4142140000000001
 10
447.092846
 20
411.0337239999999
  0
LWPOLYLINE
  5
242
330
1F
100
AcDbEntity
  8
Pocket Cut 1.1mm
100
AcDbPolyline
 90
        5
 70
   128
 43
0.0
 10
461.088618
 20
411.0337239999999
 42
-0.4142140000000001
 10
420.364458
 20
370.309564
 42
-0.4142140000000001
 10
379.6402979999999
 20
411.0337239999999
 42
-0.4142140000000001
 10
420.364458
 20
451.7578839999999
 42
-0.4142140000000001
 10
461.088618
 20
411.0337239999999
  0
LWPOLYLINE
  5
243
330
1F
100
AcDbEntity
  8
External Cut
100
AcDbPolyline
 90
        5
 70
   128
 43
0.0
 10
356.105544
 20
410.6356429999999
 42
-0.4142140000000001
 10
329.377156
 20
383.9072549999999
 42
-0.4142140000000001
 10
302.648768
 20
410.6356429999999
 42
-0.4142140000000001
 10
329.377156
 20
437.3640309999999
 42
-0.4142140000000001
 10
356.105544
 20
410.6356429999999
  0
LWPOLYLINE
  5
244
330
1F
100
AcDbEntity
  8
Pocket Cut 1.1mm
100
AcDbPolyline
 90
        5
 70
   128
 43
0.0
 10
370.101316
 20
410.6356429999999
 42
-0.4142140000000001
 10
329.377156
 20
369.911483
 42
-0.4142140000000001
 10
288.6529959999999
 20
410.6356429999999
 42
-0.4142140000000001
 10
329.377156
 20
451.3598029999999
 42
-0.4142140000000001
 10
370.101316
 20
410.6356429999999
  0
LWPOLYLINE
  5
245
330
1F
100
AcDbEntity
  8
External Cut
100
AcDbPolyline
 90
        5
 70
   128
 43
0.0
 10
267.547635
 20
410.6356429999999
 42
-0.4142140000000001
 10
240.819247
 20
383.9072549999999
 42
-0.4142140000000001
 10
214.090859
 20
410.6356429999999
 42
-0.4142140000000001
 10
240.819247
 20
437.3640309999999
 42
-0.4142140000000001
 10
267.547635
 20
410.6356429999999
  0
LWPOLYLINE
  5
246
330
1F
100
AcDbEntity
  8
Pocket Cut 1.1mm
100
AcDbPolyline
 90
        5
 70
   128
 43
0.0
 10
281.543407
 20
410.6356429999999
 42
-0.4142140000000001
 10
240.819247
 20
369.911483
 42
-0.4142140000000001
 10
200.095087
 20
410.6356429999999
 42
-0.4142140000000001
 10
240.819247
 20
451.3598029999999
 42
-0.4142140000000001
 10
281.543407
 20
410.6356429999999
  0
LWPOLYLINE
  5
247
330
1F
100
AcDbEntity
  8
Pocket Cut 1.1mm
100
AcDbPolyline
 90
        5
 70
   128
 43
0.0
 10
174.141247
 20
410.6356429999999
 42
-0.4142140000000001
 10
147.412859
 20
383.9072549999999
 42
-0.4142140000000001
 10
120.684471
 20
410.6356429999999
 42
-0.4142140000000001
 10
147.412859
 20
437.3640309999999
 42
-0.4142140000000001
 10
174.141247
 20
410.6356429999999
  0
LWPOLYLINE
  5
248
330
1F
100
AcDbEntity
  8
Pocket Cut 1.1mm
100
AcDbPolyline
 90
        5
 70
   128
 43
0.0
 10
188.1370189999999
 20
410.6356429999999
 42
-0.4142140000000001
 10
147.412859
 20
369.911483
 42
-0.4142140000000001
 10
106.6886989999999
 20
410.6356429999999
 42
-0.4142140000000001
 10
147.412859
 20
451.3598029999999
 42
-0.4142140000000001
 10
188.1370189999999
 20
410.6356429999999
  0
LWPOLYLINE
  5
249
330
1F
100
AcDbEntity
  8
Pocket Cut 1.1mm
100
AcDbPolyline
 90
        5
 70
   128
 43
0.0
 10
521.571492
 20
595.6180759999999
 42
-0.9191649999999999
 10
428.943641
 20
597.056693
 10
434.1939879999999
 20
597.303217
 42
0.9166120000000001
 10
516.331334
 20
596.0275299999999
 10
521.571492
 20
595.6180759999999
  0
LWPOLYLINE
  5
24A
330
1F
100
AcDbEntity
  8
Pocket Cut 1.1mm
100
AcDbPolyline
 90
        5
 70
   128
 43
0.0
 10
315.631156
 20
584.2003969999999
 10
320.637445
 20
585.801641
 42
0.7260130000000001
 10
399.028293
 20
587.3087579999999
 10
404.0924299999999
 20
585.901125
 42
-0.7281310000000002
 10
315.631156
 20
584.2003969999999
  0
LWPOLYLINE
  5
24B
330
1F
100
AcDbEntity
  8
Pocket Cut 1.1mm
100
AcDbPolyline
 90
        5
 70
   128
 43
0.0
 10
290.480485
 20
595.8984199999999
 10
285.229233
 20
596.1248379999999
 42
-0.907953
 10
203.1873969999999
 20
593.760524
 10
197.957899
 20
593.232069
 42
0.9104839999999999
 10
290.480485
 20
595.8984199999999
  0
LWPOLYLINE
  5
268
330
1F
100
AcDbEntity
  8
Pocket Cut 1.1mm
100
AcDbPolyline
 90
        6
 70
   128
 43
0.0
 10
323.8793289999999
 20
374.9828819999999
 42
0.4142140000000001
 10
326.5576209999999
 20
376.94552
 42
0.4142140000000001
 10
324.594983
 20
379.6238119999999
 42
-0.288954
 10
299.3326789999999
 20
401.583997
 42
1.0
 10
294.8365149999999
 20
400.2294159999999
 42
0.288954
 10
323.8793289999999
 20
374.9828819999999
  0
LWPOLYLINE
  5
269
330
1F
100
AcDbEntity
  8
Pocket Cut 1.1mm
100
AcDbPolyline
 90
        7
 70
   128
 43
0.0
 10
336.85801
 20
377.665794
 42
0.4142140000000001
 10
339.783383
 20
376.095002
 42
0.288954
 10
365.029917
 20
405.1378169999999
 42
0.4142140000000001
 10
363.0672789999999
 20
407.816108
 42
0.4142140000000001
 10
360.3889869999999
 20
405.85347
 42
-0.288954
 10
338.428802
 20
380.591167
 42
0.4142140000000001
 10
336.85801
 20
377.665794
  0
LWPOLYLINE
  5
26A
330
1F
100
AcDbEntity
  8
Pocket Cut 1.1mm
100
AcDbPolyline
 90
        6
 70
   128
 43
0.0
 10
385.823817
 20
400.6274969999999
 42
0.288954
 10
414.866632
 20
375.380963
 42
0.4142140000000001
 10
417.5449229999999
 20
377.3436009999999
 42
0.4142140000000001
 10
415.5822849999999
 20
380.021893
 42
-0.288954
 10
390.3199819999999
 20
401.9820779999999
 42
1.0
 10
385.823817
 20
400.6274969999999
  0
LWPOLYLINE
  5
26B
330
1F
100
AcDbEntity
  8
Pocket Cut 1.1mm
100
AcDbPolyline
 90
        7
 70
   128
 43
0.0
 10
427.845312
 20
378.063874
 42
0.4142140000000001
 10
430.7706849999999
 20
376.493083
 42
0.288954
 10
456.0172190000001
 20
405.535897
 42
0.4142140000000001
 10
454.054581
 20
408.214189
 42
0.4142140000000001
 10
451.3762889999999
 20
406.2515509999999
 42
-0.288954
 10
429.416104
 20
380.989247
 42
0.4142140000000001
 10
427.845312
 20
378.063874
  0
LWPOLYLINE
  5
26C
330
1F
100
AcDbEntity
  8
Pocket Cut 1.1mm
100
AcDbPolyline
 90
        7
 70
   128
 43
0.0
 10
450.408935
 20
420.08537
 42
0.4142140000000001
 10
453.334308
 20
418.514578
 42
0.4142140000000001
 10
454.905099
 20
421.4399509999999
 42
0.288954
 10
425.862285
 20
446.6864849999999
 42
0.4142140000000001
 10
423.1839929999999
 20
444.723847
 42
0.4142140000000001
 10
425.1466309999999
 20
442.0455549999999
 42
-0.288954
 10
450.408935
 20
420.08537
  0
LWPOLYLINE
  5
26D
330
1F
100
AcDbEntity
  8
Pocket Cut 1.1mm
100
AcDbPolyline
 90
        7
 70
   128
 43
0.0
 10
411.3128119999999
 20
441.0782
 42
0.4142140000000001
 10
412.883604
 20
444.0035729999999
 42
0.4142140000000001
 10
409.958231
 20
445.574365
 42
0.288954
 10
384.711697
 20
416.53155
 42
0.4142140000000001
 10
386.674335
 20
413.8532589999999
 42
0.4142140000000001
 10
389.3526269999999
 20
415.815897
 42
-0.288954
 10
411.3128119999999
 20
441.0782
  0
LWPOLYLINE
  5
26E
330
1F
100
AcDbEntity
  8
Pocket Cut 1.1mm
100
AcDbPolyline
 90
        6
 70
   128
 43
0.0
 10
363.9177969999999
 20
421.0418699999999
 42
0.288954
 10
334.874982
 20
446.288404
 42
0.4142140000000001
 10
332.1966909999999
 20
444.3257659999999
 42
0.4142140000000001
 10
334.159329
 20
441.647474
 42
-0.288954
 10
359.421632
 20
419.6872889999999
 42
1.0
 10
363.9177969999999
 20
421.0418699999999
  0
LWPOLYLINE
  5
26F
330
1F
100
AcDbEntity
  8
Pocket Cut 1.1mm
100
AcDbPolyline
 90
        7
 70
   128
 43
0.0
 10
320.32551
 20
440.68012
 42
0.4142140000000001
 10
321.8963019999999
 20
443.605493
 42
0.4142140000000001
 10
318.970929
 20
445.1762839999999
 42
0.288954
 10
293.724395
 20
416.13347
 42
0.4142140000000001
 10
295.687033
 20
413.4551779999999
 42
0.4142140000000001
 10
298.3653249999999
 20
415.4178159999999
 42
-0.288954
 10
320.32551
 20
440.68012
  0
LWPOLYLINE
  5
270
330
1F
100
AcDbEntity
  8
Pocket Cut 1.1mm
100
AcDbPolyline
 90
        6
 70
   128
 43
0.0
 10
275.359888
 20
421.0418699999999
 42
0.288954
 10
246.3170729999999
 20
446.288404
 42
0.4142140000000001
 10
243.6387819999999
 20
444.3257659999999
 42
0.4142140000000001
 10
245.60142
 20
441.647474
 42
-0.288954
 10
270.8637229999999
 20
419.6872889999999
 42
1.0
 10
275.359888
 20
421.0418699999999
  0
LWPOLYLINE
  5
271
330
1F
100
AcDbEntity
  8
Pocket Cut 1.1mm
100
AcDbPolyline
 90
        7
 70
   128
 43
0.0
 10
231.767601
 20
440.68012
 42
0.4142140000000001
 10
233.338393
 20
443.605493
 42
0.4142140000000001
 10
230.41302
 20
445.1762839999999
 42
0.288954
 10
205.166486
 20
416.13347
 42
0.4142140000000001
 10
207.1291239999999
 20
413.4551779999999
 42
0.4142140000000001
 10
209.807416
 20
415.4178159999999
 42
-0.288954
 10
231.767601
 20
440.68012
  0
LWPOLYLINE
  5
272
330
1F
100
AcDbEntity
  8
Pocket Cut 1.1mm
100
AcDbPolyline
 90
        6
 70
   128
 43
0.0
 10
181.9534999999999
 20
421.0418699999999
 42
0.288954
 10
152.9106849999999
 20
446.288404
 42
0.4142140000000001
 10
150.232394
 20
444.3257659999999
 42
0.4142140000000001
 10
152.195032
 20
441.647474
 42
-0.288954
 10
177.457335
 20
419.6872889999999
 42
1.0
 10
181.9534999999999
 20
421.0418699999999
  0
LWPOLYLINE
  5
273
330
1F
100
AcDbEntity
  8
Pocket Cut 1.1mm
100
AcDbPolyline
 90
        7
 70
   128
 43
0.0
 10
138.3612129999999
 20
440.68012
 42
0.4142140000000001
 10
139.932005
 20
443.605493
 42
0.4142140000000001
 10
137.006632
 20
445.1762839999999
 42
0.288954
 10
111.7600979999999
 20
416.13347
 42
0.4142140000000001
 10
113.722736
 20
413.4551779999999
 42
0.4142140000000001
 10
116.401028
 20
415.4178159999999
 42
-0.288954
 10
138.3612129999999
 20
440.68012
  0
LWPOLYLINE
  5
274
330
1F
100
AcDbEntity
  8
Pocket Cut 1.1mm
100
AcDbPolyline
 90
        6
 70
   128
 43
0.0
 10
117.368382
 20
401.583997
 42
1.0
 10
112.872218
 20
400.2294159999999
 42
0.288954
 10
141.9150319999999
 20
374.9828819999999
 42
0.4142140000000001
 10
144.593324
 20
376.94552
 42
0.4142140000000001
 10
142.6306859999999
 20
379.6238119999999
 42
-0.288954
 10
117.368382
 20
401.583997
  0
LWPOLYLINE
  5
275
330
1F
100
AcDbEntity
  8
Pocket Cut 1.1mm
100
AcDbPolyline
 90
        7
 70
   128
 43
0.0
 10
154.8937129999999
 20
377.665794
 42
0.4142140000000001
 10
157.819086
 20
376.095002
 42
0.288954
 10
183.0656199999999
 20
405.1378169999999
 42
0.4142140000000001
 10
181.1029819999999
 20
407.816108
 42
0.4142140000000001
 10
178.42469
 20
405.85347
 42
-0.288954
 10
156.464505
 20
380.591167
 42
0.4142140000000001
 10
154.8937129999999
 20
377.665794
  0
LWPOLYLINE
  5
276
330
1F
100
AcDbEntity
  8
Pocket Cut 1.1mm
100
AcDbPolyline
 90
        6
 70
   128
 43
0.0
 10
206.278606
 20
400.2294159999999
 42
0.288954
 10
235.32142
 20
374.9828819999999
 42
0.4142140000000001
 10
237.999712
 20
376.94552
 42
0.4142140000000001
 10
236.037074
 20
379.6238119999999
 42
-0.288954
 10
210.77477
 20
401.583997
 42
1.0
 10
206.278606
 20
400.2294159999999
  0
LWPOLYLINE
  5
277
330
1F
100
AcDbEntity
  8
Pocket Cut 1.1mm
100
AcDbPolyline
 90
        7
 70
   128
 43
0.0
 10
248.3001009999999
 20
377.665794
 42
0.4142140000000001
 10
251.225474
 20
376.095002
 42
0.288954
 10
276.472008
 20
405.1378169999999
 42
0.4142140000000001
 10
274.50937
 20
407.816108
 42
0.4142140000000001
 10
271.8310779999999
 20
405.85347
 42
-0.288954
 10
249.870893
 20
380.591167
 42
0.4142140000000001
 10
248.3001009999999
 20
377.665794
  0
LWPOLYLINE
  5
278
330
1F
100
AcDbEntity
  8
0
100
AcDbPolyline
 90
        2
 70
   128
 43
0.0
 10
1008.396201
 20
-334.138259
 10
1015.159642
 20
-334.138259
  0
ENDSEC
  0
SECTION
  2
OBJECTS
  0
DICTIONARY
  5
C
330
0
100
AcDbDictionary
281
     1
  3
ACAD_GROUP
350
D
  3
ACAD_LAYOUT
350
1A
  3
ACAD_MLINESTYLE
350
17
  3
ACAD_PLOTSETTINGS
350
19
  3
ACAD_PLOTSTYLENAME
350
E
  0
DICTIONARY
  5
D
102
{ACAD_REACTORS
330
C
102
}
330
C
100
AcDbDictionary
281
     1
  0
DICTIONARY
  5
1A
102
{ACAD_REACTORS
330
C
102
}
330
C
100
AcDbDictionary
281
     1
  3
Layout1
350
1E
  3
Layout2
350
26
  3
Model
350
22
  0
DICTIONARY
  5
17
102
{ACAD_REACTORS
330
C
102
}
330
C
100
AcDbDictionary
281
     1
  3
Standard
350
18
  0
DICTIONARY
  5
19
102
{ACAD_REACTORS
330
C
102
}
330
C
100
AcDbDictionary
281
     1
  0
ACDBDICTIONARYWDFLT
  5
E
102
{ACAD_REACTORS
330
C
102
}
330
C
100
AcDbDictionary
281
     1
  3
Normal
350
F
100
AcDbDictionaryWithDefault
340
F
  0
LAYOUT
  5
1E
102
{ACAD_REACTORS
330
1A
102
}
330
1A
100
AcDbPlotSettings
  1

  2

  4

  6

 40
0.0
 41
0.0
 42
0.0
 43
0.0
 44
0.0
 45
0.0
 46
0.0
 47
0.0
 48
0.0
 49
0.0
140
0.0
141
0.0
142
1.0
143
1.0
 70
   688
 72
     0
 73
     0
 74
     5
  7

 75
    16
147
1.0
148
0.0
149
0.0
100
AcDbLayout
  1
Layout1
 70
     1
 71
     1
 10
0.0
 20
0.0
 11
420.0
 21
297.0
 12
0.0
 22
0.0
 32
0.0
 14
1.000000000000000E+20
 24
1.000000000000000E+20
 34
1.000000000000000E+20
 15
-1.000000000000000E+20
 25
-1.000000000000000E+20
 35
-1.000000000000000E+20
146
0.0
 13
0.0
 23
0.0
 33
0.0
 16
1.0
 26
0.0
 36
0.0
 17
0.0
 27
1.0
 37
0.0
 76
     0
330
1B
  0
LAYOUT
  5
26
102
{ACAD_REACTORS
330
1A
102
}
330
1A
100
AcDbPlotSettings
  1

  2

  4

  6

 40
0.0
 41
0.0
 42
0.0
 43
0.0
 44
0.0
 45
0.0
 46
0.0
 47
0.0
 48
0.0
 49
0.0
140
0.0
141
0.0
142
1.0
143
1.0
 70
   688
 72
     0
 73
     0
 74
     5
  7

 75
    16
147
1.0
148
0.0
149
0.0
100
AcDbLayout
  1
Layout2
 70
     1
 71
     2
 10
0.0
 20
0.0
 11
0.0
 21
0.0
 12
0.0
 22
0.0
 32
0.0
 14
0.0
 24
0.0
 34
0.0
 15
0.0
 25
0.0
 35
0.0
146
0.0
 13
0.0
 23
0.0
 33
0.0
 16
1.0
 26
0.0
 36
0.0
 17
0.0
 27
1.0
 37
0.0
 76
     0
330
23
  0
LAYOUT
  5
22
102
{ACAD_REACTORS
330
1A
102
}
330
1A
100
AcDbPlotSettings
  1

  2

  4

  6

 40
0.0
 41
0.0
 42
0.0
 43
0.0
 44
0.0
 45
0.0
 46
0.0
 47
0.0
 48
0.0
 49
0.0
140
0.0
141
0.0
142
1.0
143
1.0
 70
  1712
 72
     0
 73
     0
 74
     0
  7

 75
     0
147
1.0
148
0.0
149
0.0
100
AcDbLayout
  1
Model
 70
     1
 71
     0
 10
0.0
 20
0.0
 11
0.0
 21
0.0
 12
0.0
 22
0.0
 32
0.0
 14
0.0
 24
0.0
 34
0.0
 15
0.0
 25
0.0
 35
0.0
146
0.0
 13
0.0
 23
0.0
 33
0.0
 16
1.0
 26
0.0
 36
0.0
 17
0.0
 27
1.0
 37
0.0
 76
     0
330
1F
  0
MLINESTYLE
  5
18
102
{ACAD_REACTORS
330
17
102
}
330
17
100
AcDbMlineStyle
  2
STANDARD
 70
     0
  3

 62
   256
 51
90.0
 52
90.0
 71
     2
 49
1.0
 62
   256
  6
BYLAYER
 49
-1.0
 62
   256
  6
BYLAYER
  0
ACDBPLACEHOLDER
  5
F
102
{ACAD_REACTORS
330
E
102
}
330
E
  0
ENDSEC
  0
EOF
